<?xml version="1.0" encoding="UTF-8" standalone="no"?>
<svg height="42px" viewBox="0 0 445.43054 271.00279" version="1.1"
  xmlns="http://www.w3.org/2000/svg"
  xmlns:svg="http://www.w3.org/2000/svg">
  <path d="m 0,0.2565729 8.35911,54.9343501 12.57451,55.987887 15.79541,41.35828 17.01104,28.80967 19.89438,24.50613 21.26625,17.9882 22.54125,14.38314 28.47422,12.7203 34.1419,10.88683 38.48309,9.17143 34.57451,-28.55146 22.78488,-26.40582 20.20316,-30.85438 9.88481,-14.76377 34.24967,25.82514 31.0911,16.49346 27.77159,10.41106 46.32965,12.3664 -3.175,-3.175 -10.67173,-6.6649 -16.24294,-18.77881 -23.63646,-37.58855 -20.68765,-25.52293 -8.90059,-5.93784 -9.85698,-3.85 -12.93397,-1.66785 -41.76644,-3.87965 -18.90348,-1.85109 -15.7526,-24.10054 L 244.85594,59.041032 229.10494,0.090969 225.92447,0 l -17.24495,52.107353 -18.90349,31.606098 -18.90352,17.795959 -22.76849,12.93233 -10.48415,2.82798 -12.14353,0.45909 -22.74656,-4.18804 L 79.14515,105.09735 54.13447,84.567655 25.94538,46.127812 2.98476,0.2565729 M 24.0886,47.179229 34.89967,78.58814 9.71483,52.620032 2.9107,4.1579972 M 242.67197,60.324494 225.92447,80.092456 211.16683,52.96157 227.38515,3.7419284 M 60.76763,96.526723 38.2869,81.25756 26.89943,50.316 m 182.57715,5.737399 14.2919,25.951593 -17.21324,14.419679 -13.43145,-12.71122 M 11.02157,58.086881 37.38698,83.713451 51.81333,113.61112 23.3296,109.34002 m 220.50344,-46.127828 15.91873,38.439848 -16.91364,5.12533 -15.91876,-23.918135 m -1.97504,1.70842 15.90395,22.534745 -16.91366,3.51896 -15.45295,-12.265267 m -4.50888,0.204123 -16.38446,9.396424 -14.39464,-5.12531 17.83153,-16.216425 m -149.8635,-0.148758 25.57543,16.182783 13.39973,14.37906 -25.17266,-2.98976 m 20.19804,-9.82353 -6.61365,-2.55355 -10.8831,-11.625571 m 148.82631,10.437191 14.45803,11.42991 -16.91363,2.42002 -13.39972,-4.98268 m -7.49362,0.20412 -22.51479,5.80809 -10.04209,0.25461 20.08867,-10.7203 m 104.88862,21.54122 -14.48529,-1.12048 -15.44828,-16.74523 14.95082,-4.20468 M 105.54137,118.70396 83.18504,117.41452 70.60212,104.22583 m 186.93556,20.45024 -16.14251,-1.51904 -14.4758,-10.40015 15.91876,-3.27419 m -45.36403,4.98264 -18.52084,2.44171 -10.70759,-0.77807 19.87183,-4.59195 M 68.727,140.41698 38.41141,150.0175 24.4213,111.90268 l 28.86103,4.10235 m 182.9068,6.4733 -17.00875,-2.88032 -11.34373,-3.30674 16.09797,-2.53752 m -126.35493,19.50442 -26.3337,6.30456 -14.98721,-23.38896 25.40217,2.8471 m 39.64524,-0.2615 -10.55071,0.22635 -7.82142,-3.55487 m 110.97054,4.84939 -28.28483,-2.50836 16.0732,-1.05442 m -29.08912,1.5864 -5.69135,0.90581 -10.96435,-1.3029 8.81969,-0.3898 m 30.60374,2.96167 -5.32781,0.79713 -14.70003,-1.27709 5.20623,-1.02014 m -57.10234,8.30011 -23.34892,5.22738 -15.57981,-13.44452 24.99983,1.66782 m 37.84633,-2.75325 15.2386,2.46199 -12.29316,1.71523 -16.30403,-2.40354 m 10.27108,3.78693 -16.85024,2.74505 -13.05577,-5.4908 11.09277,-0.4455 m 90.16912,2.42503 -6.76507,1.14751 -14.66594,-1.4425 5.93321,-1.05233 m 42.48851,5.9263 -25.92945,-2.77674 6.49914,-0.70976 16.43517,1.51391 m -56.08377,-2.16523 -9.94383,2.04127 -17.17448,-1.72301 14.05792,-2.07188 m 19.02258,2.53188 14.33857,1.58021 -11.74881,3.13243 -14.05572,-2.27819 m -9.68792,0.33297 -21.27683,6.74428 -15.73312,-5.898 17.46732,-3.43503 m 83.17705,4.33093 -17.00759,3.76171 -16.85857,-2.94127 12.50037,-2.93397 m -22.50467,4.30943 -22.88319,10.67777 -15.91872,-6.40667 23.19323,-7.20357 m 87.08073,-0.1207 2.28138,2.29145 -10.66947,-1.28321 -4.97745,-2.37278 m -102.81456,8.57504 -25.67706,11.64969 -15.07214,-12.08032 24.76706,-5.86218 m 120.71368,2.25972 -11.27238,5.00115 -17.42745,-2.73649 18.31417,-3.93267 m 39.69577,0.22734 1.78341,2.61805 -12.81655,-1.97421 -2.89293,-1.98264 m 2.77035,9.76003 -12.02838,-6.5003 9.93093,1.18326 6.07592,3.39641 m -59.2732,-2.09233 -21.76142,16.47487 -21.02016,-7.60764 24.87301,-11.95908 m 102.25341,0.63688 6.69654,3.5133 -18.25815,-2.2415 -2.31223,-2.69221 m -5.34012,3.70708 -2.81497,0.7685 -3.55197,-1.38671 m 42.71799,-0.5969 -5.51168,2.54296 -7.47272,-3.73478 m -34.99949,8.40508 -1.60461,0.21409 -21.8544,-3.45755 9.66175,-4.11989 m 33.98677,2.59183 11.9654,5.53445 -4.8999,3.7913 m 29.95284,-9.5008 9.86964,3.59085 -20.15194,-2.44063 5.86791,-2.77262 m 26.03297,1.91837 -7.49617,2.78737 -10.94157,-4.17075 m -90.00862,3.94603 -24.87301,20.21684 -17.78175,-6.07616 22.29059,-17.2731 m -99.02633,13.38307 -27.85777,14.52173 -14.92382,-20.50125 26.86287,-6.69111 m 181.18276,-0.94117 7.29723,8.945 -12.19325,-7.28587 m 26.6254,1.35383 -3.93413,1.8943 -7.80795,-3.48281 m 56.08064,0.7306 4.97491,-0.40426 8.83176,3.4465 5.12425,2.76475 -25.73868,-2.78716 m -176.76802,4.16586 -25.27536,17.14581 -17.61186,-12.45915 25.50781,-11.94753 m 175.86992,10.61371 -3.76551,3.23796 -5.17406,-1.15662 -12.25187,-7.99683 6.74567,-3.45201 m -46.01332,4.30622 -25.86795,24.48789 -22.41741,-7.4035 24.87299,-20.8878 m 35.7692,-0.77904 11.44093,7.06613 -12.94267,-2.94924 -2.51386,-2.09624 m 62.17188,1.12538 -8.00537,4.83044 -10.77187,-7.25688 m 44.45068,22.72336 -22.94807,-6.13437 -8.27794,-7.36041 10.82845,-6.44982 m -49.32847,6.8859 -24.5341,27.83772 -25.33879,-8.01301 26.39713,-25.05678 m 104.53773,2.21586 20.29313,24.54937 -26.86286,-7.11823 -19.79422,-20.30248 M 85.64063,164.00992 55.79301,179.38586 39.81086,152.25498 70.49812,142.49612 m 228.04143,-0.75875 8.70468,6.36086 -12.00237,-2.66202 m -108.52163,6.4937 -23.77436,21.73819 -22.52119,-11.48757 25.80454,-17.71559 m -30.4715,17.87371 -27.89985,18.2413 -18.23753,-16.53872 27.68884,-14.622 m 213.45161,4.27236 -9.51523,-2.8078 3.04315,-2.2339 m -20.68302,19.53711 -9.74547,14.76659 -27.60975,-6.13035 24.08036,-27.15404 m 21.01612,1.4195 3.58961,2.41038 -4.16606,5.07814 -14.91234,-10.71289 m -87.66172,11.84209 -23.02307,24.67266 -19.64509,-8.79838 23.71095,-22.32884 m 163.01926,31.11802 -19.72235,-7.18327 -13.62862,-23.12854 1.21621,-1.49877 13.25219,4.1898 m -24.29937,3.87052 -3.69507,5.16343 -13.31462,-17.66226 m 24.89736,7.78758 11.82017,18.83348 -15.9559,-13.0438 m 67.81697,32.92245 -23.94152,-8.50157 -19.34835,-28.08853 24.54172,6.40666 m -128.54262,3.84398 -23.77406,26.92995 -22.35402,-9.65262 23.86431,-24.67633 m 120.10785,18.09789 6.32318,11.64873 -29.40361,-22.1048 3.12266,-4.70914 m -150.45065,11.4845 -28.58489,21.50276 -22.46338,-14.36328 28.72779,-18.84883 m -32.42486,18.49244 -32.34343,20.69254 -16.91363,-21.68054 30.47356,-15.88176 m 303.29064,5.63114 20.84116,34.12214 -26.8316,-9.30872 -19.61464,-30.60459 m -103.73462,12.62493 -21.99674,27.97712 -27.64525,-9.06021 24.3032,-27.03198 m 98.83491,10.76217 19.59954,7.2673 12.95198,21.02954 -24.90879,-14.63062 m -159.10436,-7.90327 -26.2298,24.27654 -22.82183,-11.85366 28.81398,-21.79105 m 129.39026,9.00101 -18.19417,27.61414 -31.94153,-7.02989 21.93336,-27.48851 m 95.23783,10.80002 24.25598,8.26989 12.91494,21.64704 -24.85398,-9.15649 M 130.68137,198.51038 95.45922,221.40769 76.02275,205.01242 107.70408,183.58993 m 99.8867,13.53356 -24.51576,23.24568 -24.10231,-8.5414 26.26405,-24.41836 m 202.65192,11.85311 24.00168,8.27327 18.54657,21.06199 -29.60269,-8.02111 m -245.89334,-8.63118 -37.49796,23.78613 -19.94571,-12.61549 35.33416,-23.01665 m 103.86528,7.79262 -20.83454,22.37719 -30.44863,-8.54029 24.16713,-23.28359 m 62.57147,17.33079 -21.02625,24.88696 -32.74468,-9.53967 21.49051,-22.17306 m -58.84719,12.89766 -35.1215,26.69417 -26.34826,-11.545 37.49796,-23.8962 m 56.29042,19.08077 -32.88269,27.16791 -31.6682,-9.51489 34.49685,-26.71407 m 65.31776,19.33042 -30.06567,25.9058 -35.4864,-8.09812 32.80737,-26.77252 z" />
</svg>
