<?xml version="1.0" encoding="UTF-8" standalone="no"?>
<svg
   stroke="#000000"
   viewBox="0 0 1224.0547 339.50683"
   version="1.1"
   id="svg826"
   sodipodi:docname="logo-fr.svg"
   width="1224.0547"
   height="339.50681"
   inkscape:version="1.1.1 (c3084ef, 2021-09-22)"
   xmlns:inkscape="http://www.inkscape.org/namespaces/inkscape"
   xmlns:sodipodi="http://sodipodi.sourceforge.net/DTD/sodipodi-0.dtd"
   xmlns="http://www.w3.org/2000/svg"
   xmlns:svg="http://www.w3.org/2000/svg">
  <defs
     id="defs830">
    <rect
       x="-63.183116"
       y="479.44835"
       width="1527.5448"
       height="371.66539"
       id="rect2392" />
  </defs>
  <sodipodi:namedview
     id="namedview828"
     pagecolor="#ffffff"
     bordercolor="#666666"
     borderopacity="1.0"
     inkscape:pageshadow="2"
     inkscape:pageopacity="0.0"
     inkscape:pagecheckerboard="0"
     showgrid="false"
     inkscape:zoom="0.52076673"
     inkscape:cx="720.09208"
     inkscape:cy="180.50308"
     inkscape:window-width="1403"
     inkscape:window-height="846"
     inkscape:window-x="37"
     inkscape:window-y="25"
     inkscape:window-maximized="0"
     inkscape:current-layer="svg826" />
  <g
     aria-label="Math problems with guiding questions"
     id="text18272"
     style="font-size:64px;fill:#4a4a4a;fill-opacity:1;stroke:none">
    <text
       xml:space="preserve"
       id="text2390"
       style="line-height:1.25;font-family:sans-serif;font-size:74.66666667px;white-space:pre;shape-inside:url(#rect2392)" />
  </g>
  <g
     id="g40811">
    <g
       id="path824"
       style="fill:#4a4a4a;fill-opacity:1;stroke:none">
      <path
         style="color:#000000;fill:#4a4a4a;fill-opacity:1;stroke:none;-inkscape-stroke:none"
         d="M 0.49431004,0.76701085 8.85342,55.701361 l 12.57451,55.987889 15.79541,41.35828 17.01104,28.80967 19.89438,24.50613 21.26625,17.9882 22.54125,14.38314 28.47422,12.7203 34.1419,10.88683 38.48309,9.17143 34.57451,-28.55146 22.78488,-26.40582 20.20316,-30.85438 9.88481,-14.76377 34.24967,25.82514 31.0911,16.49346 27.77159,10.41106 46.32965,12.3664 -3.175,-3.175 -10.67173,-6.6649 -16.24294,-18.77881 -23.63646,-37.58855 -20.68765,-25.52293 -8.90059,-5.93784 -9.85698,-3.85 -12.93397,-1.66785 -41.76644,-3.87965 -18.90348,-1.85109 -15.7526,-24.10054 -18.04675,-43.46523 -15.751,-58.95006315 -3.18047,-0.09097 -17.24495,52.10735315 -18.90349,31.606098 -18.90352,17.795962 -22.76849,12.93233 -10.48415,2.82798 -12.14353,0.45909 -22.74656,-4.18804 L 79.63946,105.60779 54.62878,85.078093 26.43969,46.63825 3.47907,0.76701085 M 24.58291,47.689667 35.39398,79.098578 10.20914,53.13047 3.40501,4.6684349 M 243.16628,60.834932 226.41878,80.602894 211.66114,53.472008 227.87946,4.2523659 M 61.26194,97.037161 38.78121,81.767998 27.39374,50.826438 m 182.57715,5.737399 14.2919,25.951593 -17.21324,14.419681 -13.43145,-12.711222 m -182.10222,-25.62657 26.36541,25.62657 14.42635,29.897671 -28.48373,-4.2711 m 220.50344,-46.12783 15.91873,38.43985 -16.91364,5.12533 -15.91876,-23.918137 m -1.97504,1.70842 15.90395,22.534747 -16.91366,3.51896 -15.45295,-12.265269 m -4.50888,0.20412 -16.38446,9.396429 -14.39464,-5.12531 17.83153,-16.216429 m -149.8635,-0.14876 25.57543,16.182789 13.39973,14.37906 -25.17266,-2.98976 m 20.19804,-9.82353 -6.61365,-2.55355 -10.8831,-11.625569 m 148.82631,10.437189 14.45803,11.42991 -16.91363,2.42002 -13.39972,-4.98268 m -7.49362,0.20412 -22.51479,5.80809 -10.04209,0.25461 20.08867,-10.7203 m 104.88862,21.54122 -14.48529,-1.12048 -15.44828,-16.74523 14.95082,-4.20468 M 106.03568,119.2144 83.67935,117.92496 71.09643,104.73627 m 186.93556,20.45024 -16.14251,-1.51904 -14.4758,-10.40015 15.91876,-3.27419 m -45.36403,4.98264 -18.52084,2.44171 -10.70759,-0.77807 19.87183,-4.59195 m -119.3905,28.87996 -30.31559,9.60052 -13.99011,-38.11482 28.86103,4.10235 m 182.9068,6.4733 -17.00875,-2.88032 -11.34373,-3.30674 16.09797,-2.53752 M 98.074,133.76861 l -26.3337,6.30456 -14.98721,-23.38896 25.40217,2.8471 m 39.64524,-0.2615 -10.55071,0.22635 -7.82142,-3.55487 m 110.97054,4.84939 -28.28483,-2.50836 16.0732,-1.05442 m -29.08912,1.5864 -5.69135,0.90581 -10.96435,-1.3029 8.81969,-0.3898 m 30.60374,2.96167 -5.32781,0.79713 -14.70003,-1.27709 5.20623,-1.02014 m -57.10234,8.30011 -23.34892,5.22738 -15.57981,-13.44452 24.99983,1.66782 m 37.84633,-2.75325 15.2386,2.46199 -12.29316,1.71523 -16.30403,-2.40354 m 10.27108,3.78693 -16.85024,2.74505 -13.05577,-5.4908 11.09277,-0.4455 m 90.16912,2.42503 -6.76507,1.14751 -14.66594,-1.4425 5.93321,-1.05233 m 42.48851,5.9263 -25.92945,-2.77674 6.49914,-0.70976 16.43517,1.51391 m -56.08377,-2.16523 -9.94383,2.04127 -17.17448,-1.72301 14.05792,-2.07188 m 19.02258,2.53188 14.33857,1.58021 -11.74881,3.13243 -14.05572,-2.27819 m -9.68792,0.33297 -21.27683,6.74428 -15.73312,-5.898 17.46732,-3.43503 m 83.17705,4.33093 -17.00759,3.76171 -16.85857,-2.94127 12.50037,-2.93397 m -22.50467,4.30943 -22.88319,10.67777 -15.91872,-6.40667 23.19323,-7.20357 m 87.08073,-0.1207 2.28138,2.29145 -10.66947,-1.28321 -4.97745,-2.37278 m -102.81456,8.57504 -25.67706,11.64969 -15.07214,-12.08032 24.76706,-5.86218 m 120.71368,2.25972 -11.27238,5.00115 -17.42745,-2.73649 18.31417,-3.93267 m 39.69577,0.22734 1.78341,2.61805 -12.81655,-1.97421 -2.89293,-1.98264 m 2.77035,9.76003 -12.02838,-6.5003 9.93093,1.18326 6.07592,3.39641 m -59.2732,-2.09233 -21.76142,16.47487 -21.02016,-7.60764 24.87301,-11.95908 m 102.25341,0.63688 6.69654,3.5133 -18.25815,-2.2415 -2.31223,-2.69221 m -5.34012,3.70708 -2.81497,0.7685 -3.55197,-1.38671 m 42.71799,-0.5969 -5.51168,2.54296 -7.47272,-3.73478 m -34.99949,8.40508 -1.60461,0.21409 -21.8544,-3.45755 9.66175,-4.11989 m 33.98677,2.59183 11.9654,5.53445 -4.8999,3.7913 m 29.95284,-9.5008 9.86964,3.59085 -20.15194,-2.44063 5.86791,-2.77262 m 26.03297,1.91837 -7.49617,2.78737 -10.94157,-4.17075 m -90.00862,3.94603 -24.87301,20.21684 -17.78175,-6.07616 22.29059,-17.2731 m -99.02633,13.38307 -27.85777,14.52173 -14.92382,-20.50125 26.86287,-6.69111 m 181.18276,-0.94117 7.29723,8.945 -12.19325,-7.28587 m 26.6254,1.35383 -3.93413,1.8943 -7.80795,-3.48281 m 56.08064,0.7306 4.97491,-0.40426 8.83176,3.4465 5.12425,2.76475 -25.73868,-2.78716 m -176.76802,4.16586 -25.27536,17.14581 -17.61186,-12.45915 25.50781,-11.94753 m 175.86992,10.61371 -3.76551,3.23796 -5.17406,-1.15662 -12.25187,-7.99683 6.74567,-3.45201 m -46.01332,4.30622 -25.86795,24.48789 -22.41741,-7.4035 24.87299,-20.8878 m 35.7692,-0.77904 11.44093,7.06613 -12.94267,-2.94924 -2.51386,-2.09624 m 62.17188,1.12538 -8.00537,4.83044 -10.77187,-7.25688 m 44.45068,22.72336 -22.94807,-6.13437 -8.27794,-7.36041 10.82845,-6.44982 m -49.32847,6.8859 -24.5341,27.83772 -25.33879,-8.01301 26.39713,-25.05678 m 104.53773,2.21586 20.29313,24.54937 -26.86286,-7.11823 -19.79422,-20.30248 M 86.13494,164.52036 56.28732,179.8963 40.30517,152.76542 70.99243,143.00656 m 228.04143,-0.75875 8.70468,6.36086 -12.00237,-2.66202 m -108.52163,6.4937 -23.77436,21.73819 -22.52119,-11.48757 25.80454,-17.71559 m -30.4715,17.87371 -27.89985,18.2413 -18.23753,-16.53872 27.68884,-14.622 m 213.45161,4.27236 -9.51523,-2.8078 3.04315,-2.2339 M 304.1,168.69744 l -9.74547,14.76659 -27.60975,-6.13035 24.08036,-27.15404 m 21.01612,1.4195 3.58961,2.41038 -4.16606,5.07814 -14.91234,-10.71289 m -87.66172,11.84209 -23.02307,24.67266 -19.64509,-8.79838 23.71095,-22.32884 m 163.01926,31.11802 -19.72235,-7.18327 -13.62862,-23.12854 1.21621,-1.49877 13.25219,4.1898 m -24.29937,3.87052 -3.69507,5.16343 -13.31462,-17.66226 m 24.89736,7.78758 11.82017,18.83348 -15.9559,-13.0438 m 67.81697,32.92245 -23.94152,-8.50157 -19.34835,-28.08853 24.54172,6.40666 m -128.54262,3.84398 -23.77406,26.92995 -22.35402,-9.65262 23.86431,-24.67633 m 120.10785,18.09789 6.32318,11.64873 -29.40361,-22.1048 3.12266,-4.70914 m -150.45065,11.4845 -28.58489,21.50276 -22.46338,-14.36328 28.72779,-18.84883 m -32.42486,18.49244 -32.34343,20.69254 -16.91363,-21.68054 30.47356,-15.88176 m 303.29064,5.63114 20.84116,34.12214 -26.8316,-9.30872 -19.61464,-30.60459 m -103.73462,12.62493 -21.99674,27.97712 -27.64525,-9.06021 24.3032,-27.03198 m 98.83491,10.76217 19.59954,7.2673 12.95198,21.02954 -24.90879,-14.63062 m -159.10436,-7.90327 -26.2298,24.27654 -22.82183,-11.85366 28.81398,-21.79105 m 129.39026,9.00101 -18.19417,27.61414 -31.94153,-7.02989 21.93336,-27.48851 m 95.23783,10.80002 24.25598,8.26989 12.91494,21.64704 -24.85398,-9.15649 M 131.17568,199.02082 95.95353,221.91813 76.51706,205.52286 108.19839,184.10037 m 99.8867,13.53356 -24.51576,23.24568 -24.10231,-8.5414 26.26405,-24.41836 m 202.65192,11.85311 24.00168,8.27327 18.54657,21.06199 -29.60269,-8.02111 m -245.89334,-8.63118 -37.49796,23.78613 -19.94571,-12.61549 35.33416,-23.01665 m 103.86528,7.79262 -20.83454,22.37719 -30.44863,-8.54029 24.16713,-23.28359 m 62.57147,17.33079 -21.02625,24.88696 -32.74468,-9.53967 21.49051,-22.17306 m -58.84719,12.89766 -35.1215,26.69417 -26.34826,-11.545 37.49796,-23.8962 m 56.29042,19.08077 -32.88269,27.16791 -31.6682,-9.51489 34.49685,-26.71407 m 65.31776,19.33042 -30.06567,25.9058 -35.4864,-8.09812 32.80737,-26.77252 z"
         id="path47293" />
      <path
         style="color:#000000;fill:#4a4a4a;fill-opacity:1;stroke:none;-inkscape-stroke:none"
         d="m 226.06055,0 -17.34375,52.408203 -18.83985,31.5 -18.80859,17.707027 -22.66211,12.8711 -10.36719,2.79687 -12.03125,0.45508 -22.65429,-4.17187 L 79.890625,105.16602 54.994141,84.732422 26.867187,46.376953 3.9257813,0.54296875 3.03125,0.99023438 26.011719,46.900391 l 28.251953,38.523437 25.125,20.625002 23.705078,8.48633 22.83984,4.20507 12.25586,-0.46289 10.59961,-2.85937 22.87696,-12.99219 18.99804,-17.884764 18.9668,-31.712891 17.14648,-51.8066406 2.43555,0.068359 15.66211,58.6230476 18.07812,43.539059 15.90821,24.33985 19.14453,1.875 41.75781,3.8789 12.86524,1.65821 9.75,3.80859 8.79101,5.86523 20.6211,25.43946 23.64062,37.5957 16.31836,18.86523 10.6875,6.67383 1.81641,1.81836 -44.50586,-11.8789 -27.71875,-10.39258 -31.02735,-16.45899 -34.64062,-26.11914 -10.17969,15.20508 -20.1875,30.82813 -22.73437,26.34961 -34.35157,28.36523 -38.22265,-9.10938 L 146.58984,250.98633 118.17383,238.29297 95.691406,223.94727 74.488281,206.01172 54.646484,181.57031 37.675781,152.83008 21.908203,111.54492 9.3457031,55.609375 0.98828125,0.69140625 0,0.84179688 8.3613281,55.792969 20.947266,111.83398 l 15.824218,41.43164 17.050782,28.87696 19.947265,24.57226 21.328125,18.04102 22.601564,14.41992 28.5332,12.74805 34.18555,10.90039 38.74414,9.23242 34.79883,-28.73633 22.83398,-26.46289 20.2207,-30.8789 9.5879,-14.32227 33.85937,25.5293 31.1543,16.52734 27.82617,10.43164 48.15234,12.85352 -4.5332,-4.53321 -10.65625,-6.65429 -16.16797,-18.69336 -23.63281,-37.58203 -20.75391,-25.60547 -9.00781,-6.00977 -9.96484,-3.89258 L 339.875,132.35156 298.09961,128.4707 279.4375,126.64258 263.8418,102.78125 245.82422,59.390625 229.98633,0.11132812 Z m 1.34375,4.0957031 -16.28516,49.4257809 15.20898,27.960938 17.21875,-20.324219 -0.76171,-0.646484 -16.27539,19.210937 -14.30665,-26.298828 16.1504,-49.0156249 z M 3.9003906,4.5996094 2.9101563,4.7382812 9.7363281,53.361328 35.035156,79.447266 35.867187,78.935547 25.056641,47.527344 24.109375,47.851562 34.191406,77.142578 10.681641,52.900391 Z M 27.863281,50.654297 26.923828,51 38.367187,82.091797 60.980469,97.451172 61.542969,96.623047 39.195312,81.445312 Z m 182.544919,5.667969 -0.875,0.482421 14.09375,25.591797 -16.55664,13.869141 -13.10937,-12.404297 -0.68555,0.726563 13.75391,13.015625 17.86914,-14.96875 z M 11.865234,58.238281 11.167969,58.955078 37.46875,84.521484 51.447266,113.48633 23.898437,109.35547 23.75,110.3457 53.169922,114.75586 38.292969,83.927734 Z m 232.923826,5.292969 -0.92383,0.382812 15.70704,37.929688 -16.0293,4.85742 -15.71289,-23.609373 -0.83203,0.554687 16.12304,24.228516 17.79883,-5.39453 z m -18.9414,21.257812 -0.81836,0.578125 15.46484,21.910153 -15.9375,3.31641 -15.26953,-12.119141 -0.62109,0.783203 15.63476,12.412108 17.89063,-3.72265 z m -183.923832,1.765625 -0.535156,0.84375 25.521484,16.148443 12.425781,13.33398 -23.818359,-2.82813 -0.117187,0.99219 26.527343,3.15039 -14.375,-15.42383 z m 149.259762,0.201172 -18.44922,16.777341 15.39649,5.48243 16.58594,-9.511724 -0.49805,-0.867187 -16.18555,9.281251 -13.39258,-4.76758 17.21485,-15.654296 z m -132.658199,3.449219 -0.730469,0.683594 10.960937,11.708988 6.720703,2.59375 0.359375,-0.9336 -6.505859,-2.51172 z m 148.771479,10.386722 -0.62109,0.7832 13.54492,10.70703 -15.63476,2.23828 -13.28125,-4.93945 -0.34766,0.9375 13.51758,5.02734 18.19336,-2.60351 z m 53.64258,3.79492 -15.73633,4.42578 16.13477,17.48828 14.68164,1.13672 0.0762,-0.99805 -14.28906,-1.10547 -14.76172,-16 14.16602,-3.98437 z m -189.480466,0.004 -0.724609,0.6914 12.71875,13.33008 22.554685,1.30078 0.0566,-0.99805 -22.160153,-1.27734 z m 99.474606,0.56445 -20.08789,10.7207 0.24805,0.94141 10.09766,-0.25586 22.57031,-5.82227 -0.25,-0.96875 -22.45899,5.79492 -7.87304,0.19922 18.22461,-9.72656 z m 72.29883,4.54883 -17.03711,3.5039 15.51172,11.14453 16.27734,1.53125 0.0937,-0.99414 -16.00781,-1.50781 -13.4375,-9.6543 14.80078,-3.04492 z m -54.73242,2.05664 -19.87305,4.59179 0.0762,0.98633 10.75977,0.78125 18.57031,-2.44922 -0.13086,-0.99023 -18.46875,2.43555 -7.35156,-0.53516 16.64258,-3.8457 z m -164.341797,0.24023 14.443359,39.34766 30.771485,-9.74414 -0.302735,-0.95313 -29.859375,9.45508 -13.537109,-36.88086 28.033203,3.98438 0.140625,-0.99024 z m 200.193357,1.96875 -16.09765,2.53906 -0.0625,0.97266 11.37109,3.31445 17.03711,2.88672 0.16797,-0.98633 -16.98047,-2.875 -9.17188,-2.67382 13.89063,-2.18946 z m -120.71679,1.7168 -0.41407,0.91015 7.92578,3.60157 10.66407,-0.22852 -0.0215,-1 -10.43554,0.22461 z m -47.869145,0.58398 15.746094,24.57227 26.677734,-6.38867 -0.232422,-0.97071 -25.988281,6.22071 -14.228516,-22.20508 24.359375,2.72851 0.111328,-0.99218 z m 146.388675,0.65821 -16.07227,1.05468 -0.0117,0.99805 28.28516,2.50781 0.0879,-0.99609 -21.83399,-1.93555 9.61133,-0.63086 z m -36.91407,0.79882 -8.82031,0.39063 -0.0371,0.99609 11.03321,1.31055 5.75976,-0.91602 -0.15625,-0.98828 -5.62305,0.89453 -4.79101,-0.57031 2.67969,-0.11719 z m -17.30078,0.46485 -0.16015,0.98828 11.96093,1.93164 -8.93359,1.24609 -16.23242,-2.39257 -0.14649,0.98828 16.375,2.41406 12.36524,-1.72461 0.01,-0.98828 z m -64.384763,0.98047 16.902343,14.58593 23.59375,-5.28125 -0.21875,-0.97656 -23.10351,5.17188 -14.257817,-12.30274 23.509767,1.56836 0.0664,-0.99805 z m 97.392583,0.0254 -5.20508,1.01953 0.0527,0.99023 14.75781,1.28125 5.38672,-0.80468 -0.14843,-0.99024 -5.26758,0.78906 -11.10938,-0.96484 1.72656,-0.33789 z m -55.00782,1.35742 -11.09375,0.44726 -0.17382,0.95899 13.1875,5.54687 16.99218,-2.76757 -0.16015,-0.98829 -16.70899,2.72266 -10.85156,-4.56445 8.84766,-0.35547 z m 74.60352,1.08594 -5.9336,1.05273 0.0391,0.99024 14.73242,1.44726 6.83008,-1.1582 -0.16602,-0.98633 -6.69922,1.13672 -10.98437,-1.08008 2.35547,-0.41797 z m -29.63672,0.0332 -14.05859,2.07031 0.0234,0.99219 17.25,1.73047 10.01953,-2.05664 -0.20117,-0.97852 -9.86914,2.02539 -13.08008,-1.3125 10.0625,-1.48242 z m 52.77734,2.39648 -6.54882,0.71485 0.002,0.99414 25.92773,2.77734 0.10742,-0.99414 -21.33593,-2.28515 1.85742,-0.20313 16.38476,1.50977 0.0918,-0.9961 z m -33.62695,0.13282 -0.10937,0.99414 11.68359,1.28711 -9.06445,2.41796 -13.95118,-2.26171 -0.16015,0.98632 14.16211,2.29493 11.85156,-3.15821 -0.0742,-0.98047 z m -40.84766,0.18359 -19.19726,3.77539 17.54492,6.57813 21.44141,-6.79688 -0.30078,-0.95312 -21.11329,6.6914 -13.91992,-5.2168 15.73828,-3.0957 z m 97.72461,2.14844 -0.42968,0.90429 5.05078,2.40821 12.18164,1.46484 -3.29883,-3.3125 -0.70703,0.70508 1.26367,1.26953 -9.1582,-1.10156 z m -35.93164,0.0742 -12.5,2.93359 0.0274,0.97852 16.95703,2.95898 17.10351,-3.7832 -0.21484,-0.97657 -16.91211,3.74024 -14.35352,-2.50391 10.1211,-2.375 z m -38.14648,1.38476 -24.53516,7.6211 17.42383,7.01171 23.07813,-10.76953 -0.42188,-0.90625 -22.68555,10.58594 -14.41406,-5.79883 21.85156,-6.78906 z m 91.44726,0.34375 -0.5664,0.82422 2.98633,2.04688 14.0664,2.16796 -2.42969,-3.57031 -0.82812,0.5625 1.13672,1.66797 -11.56641,-1.78125 z m -136.49609,0.44531 -25.76367,6.09766 16.11133,12.91406 25.95507,-11.77734 -0.4121,-0.91016 -25.39844,11.52149 -14.0332,-11.2461 23.77148,-5.62695 z m 110.33789,0.58985 -18.31445,3.93164 0.0273,0.98242 17.57422,2.75977 11.40625,-5.06055 -0.40625,-0.91406 -11.13672,4.9414 -14.62305,-2.29492 15.6836,-3.36914 z m 44.20117,0.92187 -0.75976,0.65235 2.43945,2.83984 18.44922,2.26367 0.29492,-0.9375 -6.69726,-3.51367 -0.46485,0.88477 4.27149,2.24023 -15.34766,-1.88281 z m -88.97656,0.66016 -25.94531,12.47461 22.39453,8.10547 21.97851,-16.63867 -0.60351,-0.79883 -21.54492,16.31054 -19.64649,-7.10937 23.80078,-11.44336 z m 106.84766,0.51953 -0.44727,0.89453 7.6875,3.8418 5.72852,-2.64258 -0.41797,-0.9082 -5.29297,2.4414 z m -45.39649,0.0391 -0.29687,0.93555 12.02929,6.5 0.47461,-0.87891 -9.72265,-5.2539 7.23047,0.86133 5.98828,3.34765 0.48828,-0.87305 -6.16211,-3.44335 z M 251,132.30469 l -11.26172,4.80078 23.64453,3.74219 1.67578,-0.22461 -0.13086,-0.99024 -1.5332,0.20313 -20.06641,-3.17383 8.06446,-3.4375 z m 19.44141,0.74023 -0.36524,0.93164 3.70703,1.44727 2.97461,-0.8125 -0.26367,-0.96485 -2.65625,0.72461 z m 47.13086,0.0625 -7.4336,3.51172 21.8711,2.64844 0.23242,-0.96485 -9.8711,-3.59179 -0.34179,0.93945 5.77343,2.10156 -14.10351,-1.70898 4.30078,-2.0332 z m 7.98828,0.51953 -0.35743,0.9336 11.11719,4.23828 7.67383,-2.85352 -0.34961,-0.9375 -7.31836,2.72266 z m -43.92578,0.73633 -0.7754,0.63086 5.4961,6.73828 -9.74805,-5.82422 -0.51367,0.85938 12.19336,7.28515 0.64453,-0.74609 z m -66.93165,0.14844 -23.02539,17.8418 18.92188,6.46484 25.08789,-20.39063 -0.62891,-0.77539 -24.6582,20.04102 -16.64062,-5.68555 21.55468,-16.70508 z m 70.68946,0.39062 -0.41992,0.90821 11.21875,5.1875 -4.25,3.28906 0.61328,0.79101 5.55078,-4.29687 z m -185.449221,0.23243 -27.583984,6.87109 15.615234,21.44922 28.238281,-14.72071 -0.46094,-0.88671 -27.476559,14.32226 -14.232422,-19.55469 26.142581,-6.50976 z m 191.494141,0.51171 -0.4082,0.91211 8.02148,3.57813 4.14258,-1.99414 -0.43359,-0.90235 -3.72657,1.79493 z m 60.92578,0.27539 -5.08984,0.41407 0.082,0.99609 4.85937,-0.39453 8.69532,3.39258 2.84961,1.53711 -23.19922,-2.51172 -0.10743,0.99414 25.73829,2.78711 0.29101,-0.93555 -5.15039,-2.7793 z m -206.2168,0.38282 -26.28515,12.3125 18.5957,13.15625 25.5625,-17.33985 -0.56055,-0.82812 -24.99023,16.95117 -16.625,-11.76367 24.72852,-11.58203 z m 128.24414,0.99804 -0.52539,0.85157 8.87696,5.48242 -9.88867,-2.25195 -2.42188,-2.01954 -0.64062,0.76758 2.60546,2.17383 13.06055,2.97461 0.37305,-0.91211 z m 33.16602,0.25586 -7.51367,3.84571 13.04883,8.51757 5.50781,1.23047 3.95508,-3.40039 -0.65235,-0.75976 -3.57422,3.07422 -4.84179,-1.08204 -11.45313,-7.4746 5.97852,-3.06055 z m 6.22852,0.47461 -0.5586,0.83008 11.03711,7.43359 8.27735,-4.99414 -0.51563,-0.85742 -7.73242,4.66602 z m -75.74805,0.0918 -25.56055,21.46289 23.55274,7.7793 26.08398,-24.69336 -0.6875,-0.72656 -25.65039,24.2832 -21.2832,-7.0293 24.1875,-20.31055 z m 99.26562,2.67187 -11.41406,6.79883 8.87695,7.89453 23.0625,6.16407 0.25782,-0.9668 -22.83399,-6.10352 -7.67968,-6.82812 10.24218,-6.09961 z m -37.97461,1.04688 -0.58984,0.80859 6.77734,4.95118 -9.67187,-2.14454 -0.2168,0.97657 12.00391,2.66211 0.40234,-0.89258 z m 43.95899,0.0312 -0.7168,0.69922 19.89063,20.40039 28.5039,7.55273 -21.28711,-25.75 -0.76953,0.63672 19.29883,23.34961 -25.22266,-6.68359 z m -78.87695,0.64258 -27.01172,25.64062 26.45703,8.36719 24.75,-28.08203 -0.75,-0.66211 -24.31836,27.59375 -24.2207,-7.6582 25.7832,-24.47461 z m -193.568363,0.0117 -31.285156,9.94922 16.539062,28.07812 30.267578,-15.5918 -0.457031,-0.88867 -29.427734,15.16016 -15.423829,-26.1836 30.089844,-9.57031 z m 95.599613,2.0332 -26.49805,18.19141 23.57812,12.02734 24.03125,-21.97266 -0.67578,-0.73632 -23.51758,21.5039 -21.46484,-10.94922 25.11133,-17.24023 z m 130.20312,3.40625 -0.58398,0.8125 15.29297,10.98633 4.8125,-5.86719 -4.04688,-2.7168 -0.55664,0.83008 3.13477,2.10352 -3.52149,4.29101 z m -3.68359,0.36133 -0.79883,0.60156 13.72461,18.20703 4.08984,-5.7168 -0.8125,-0.58203 -3.29883,4.60743 z m 31.52539,0.42773 -3.85547,2.83008 10.48242,3.09375 0.2832,-0.95898 -8.54882,-2.52344 2.23046,-1.63672 z m -206.91602,0.73047 -28.32031,14.95508 19.05273,17.27734 28.22266,-18.45312 -0.54687,-0.83789 -27.57618,18.03125 -17.423824,-15.80078 27.058594,-14.28907 z m 172.88086,0.35938 -24.64453,27.78906 28.77539,6.39062 9.93555,-15.05468 -0.83399,-0.55079 -9.55664,14.47852 -26.44336,-5.87109 23.51563,-26.51758 z m 29.99219,2.64257 -1.64844,2.03321 13.89649,23.58203 19.89062,7.24414 0.3418,-0.93945 -19.55274,-7.1211 -13.36132,-22.67578 0.78125,-0.96484 12.92773,4.08789 0.30273,-0.95313 z m -131.05274,0.90821 -24.25585,22.84179 20.65429,9.25196 23.26758,-24.9336 -0.73242,-0.68359 -22.77735,24.41211 -18.63671,-8.3457 23.16601,-21.81446 z m 128.49219,2.7539 -0.84765,0.53321 10.19921,16.25 -13.5957,-11.11328 -0.63281,0.77343 15.95703,13.04297 0.74023,-0.65234 z m 18.79297,1.56446 20.20313,29.33007 24.09375,8.55469 0.33398,-0.9414 -23.78906,-8.44727 -18.49219,-26.84766 23.24023,6.06641 0.25196,-0.96875 z m -125.44922,3.32812 -24.36719,25.19531 23.34961,10.08399 24.01563,-27.20117 -0.75,-0.66211 -23.53516,26.6582 -21.35547,-9.22266 23.36133,-24.15625 z m -72.53711,2.63672 -29.37304,19.27344 23.40625,14.96484 28.86328,-21.71094 -0.60157,-0.79882 -28.30859,21.29492 -21.51953,-13.76172 28.08203,-18.42578 z m 172.62891,0.36719 -3.38281,5.10156 29.77929,22.38867 0.74024,-0.63867 -6.32227,-11.64844 -0.8789,0.47657 5.22851,9.63281 -27.19336,-20.44336 2.86328,-4.31641 z m -223.792969,1.23047 -31.00586,16.16015 17.5625,22.51172 32.726559,-20.9375 -0.53906,-0.8418 -31.958983,20.44727 -16.263672,-20.84766 29.939453,-15.60546 z m 278.337889,0.0137 -0.84375,0.53906 19.70899,30.75195 28.3125,9.82227 -21.56836,-35.3125 -0.85352,0.52148 20.11523,32.93164 -25.35156,-8.79492 z m -129.86719,4.44531 -24.8164,27.60352 28.70703,9.4082 22.21289,-28.25391 -0.78516,-0.61718 -21.78125,27.70117 -26.58203,-8.71094 23.78906,-26.46289 z m -72.79492,7.0918 -29.44531,22.26953 23.83789,12.38086 26.48633,-24.51563 -0.67774,-0.73437 -25.97265,24.03906 -21.80469,-11.32812 28.17969,-21.3125 z m 101.09961,2.18554 -22.43359,28.11524 33.06054,7.27539 18.38282,-27.90039 -0.83399,-0.55078 -18.00586,27.32812 -30.82031,-6.78515 21.43164,-26.85938 z m 71.07617,1.34961 -0.34765,0.93946 19.4375,7.20703 11.80664,19.17187 -23.17383,-13.61328 -0.50781,0.86133 24.91015,14.63086 0.67774,-0.69336 -13.04102,-21.17578 z m -227.45898,3.32032 -32.228517,21.79297 20.224609,17.06054 35.533208,-23.09961 -0.54493,-0.83789 -34.910153,22.69531 -18.646484,-15.73046 31.132817,-21.05274 z m 77.47265,3.86718 -26.86914,24.98047 25.16993,8.91992 24.73828,-23.45703 -0.68946,-0.72461 -24.29296,23.03516 -23.03516,-8.16406 25.66016,-23.85742 z m 174.69922,2.09961 -0.32226,0.94727 24.08203,8.21094 12.0957,20.27539 -23.52539,-8.66797 -0.3457,0.9375 26.17969,9.64648 -13.73243,-23.01953 z m -150.36132,8.94336 -24.79688,23.88867 31.58398,8.85938 21.04102,-22.59961 -0.73242,-0.68164 -20.62695,22.1543 -29.31446,-8.22266 23.53906,-22.67773 z m 178.81835,0.70508 -0.32617,0.94531 23.87696,8.23047 17.35937,19.71289 -27.99805,-7.58398 -0.26171,0.96484 31.20898,8.45508 -19.73438,-22.4082 z m -255.49414,0.89063 -35.986324,23.4414 20.871094,13.20117 37.76562,-23.95507 -0.53515,-0.84571 -37.23047,23.61719 -19.019531,-12.03125 34.679691,-22.58984 z m 106.95508,8.92187 -22.06836,22.76953 33.85352,9.86133 21.23633,-25.13477 -0.76563,-0.64453 -20.8164,24.63868 -31.63477,-9.2168 20.91211,-21.57813 z m -82.73047,4.07617 -38.28711,24.40039 27.47657,12.03907 35.35547,-26.87305 -0.60547,-0.79492 -34.88868,26.51562 -25.21874,-11.05078 36.70703,-23.39258 z m 26.19922,10.04688 -35.26367,27.30859 32.85352,9.8711 33.08984,-27.3379 -0.63672,-0.77148 -32.67773,26.99805 -30.48243,-9.15821 33.73047,-26.11914 z m 32.76367,10.21094 -33.80078,27.58203 36.73047,8.38086 30.96875,-26.6836 -0.90625,-0.24804 z m 0.23243,1.0996 31.58984,8.64844 -29.16211,25.12891 -34.24219,-7.81445 z"
         id="path47295" />
    </g>
    <g
       id="g40529"
       transform="matrix(1.0537849,0,0,1.1957656,2.3107262,-271.85936)"
       style="font-size:64px;fill:#4a4a4a;fill-opacity:1;stroke:none">
      <g
         aria-label="Problèmes de maths avec questions-guides"
         id="text4246"
         style="font-size:53.3333px">
        <path
           d="m 26.856245,474.69102 q 0,2.57812 -0.911457,4.79166 -0.885417,2.1875 -2.499999,3.80208 -2.005207,2.00521 -4.73958,3.02083 -2.734374,0.98958 -6.901038,0.98958 H 6.647924 v 14.45312 H 1.4916771 V 462.97227 H 12.012504 q 3.489581,0 5.911455,0.59896 2.421874,0.57292 4.296872,1.82292 2.213541,1.48437 3.411457,3.69791 1.223957,2.21354 1.223957,5.59896 z m -5.36458,0.1302 q 0,-2.0052 -0.703124,-3.48958 -0.703125,-1.48437 -2.135416,-2.42187 -1.249999,-0.80729 -2.864581,-1.14583 -1.588541,-0.36459 -4.036456,-0.36459 H 6.647924 v 15.49479 h 4.348956 q 3.124998,0 5.078122,-0.54688 1.953124,-0.57292 3.177081,-1.79687 1.223958,-1.25 1.718749,-2.63021 0.520833,-1.38021 0.520833,-3.09896 z"
           style="-inkscape-font-specification:sans-serif"
           id="path40490" />
        <path
           d="m 51.439564,477.99831 h -0.260416 q -1.09375,-0.26042 -2.135416,-0.36459 -1.015624,-0.13021 -2.421873,-0.13021 -2.265624,0 -4.374998,1.01563 -2.109373,0.98958 -4.062497,2.57812 v 20.65103 h -4.895831 v -29.08852 h 4.895831 v 4.29687 q 2.916665,-2.34375 5.130205,-3.30729 2.239582,-0.98958 4.557289,-0.98958 1.276041,0 1.848957,0.0781 0.572916,0.0521 1.718749,0.23438 z"
           style="-inkscape-font-specification:sans-serif"
           id="path40487" />
        <path
           d="m 80.892674,487.21705 q 0,7.10937 -3.645831,11.22395 -3.645832,4.11458 -9.76562,4.11458 -6.171871,0 -9.817702,-4.11458 -3.61979,-4.11458 -3.61979,-11.22395 0,-7.10937 3.61979,-11.22395 3.645831,-4.14062 9.817702,-4.14062 6.119788,0 9.76562,4.14062 3.645831,4.11458 3.645831,11.22395 z m -5.052081,0 q 0,-5.65104 -2.21354,-8.38541 -2.21354,-2.76042 -6.14583,-2.76042 -3.984372,0 -6.197913,2.76042 -2.187498,2.73437 -2.187498,8.38541 0,5.46875 2.21354,8.30729 2.21354,2.81249 6.171871,2.81249 3.906248,0 6.119788,-2.78645 2.239582,-2.8125 2.239582,-8.33333 z"
           style="-inkscape-font-specification:sans-serif"
           id="path40484" />
        <path
           d="m 114.09578,486.98267 q 0,3.64584 -1.04167,6.5625 -1.01562,2.91667 -2.76041,4.89583 -1.84896,2.05729 -4.0625,3.09896 -2.21354,1.01562 -4.86979,1.01562 -2.473956,0 -4.322914,-0.59896 -1.848957,-0.57291 -3.645831,-1.56249 l -0.3125,1.35416 h -4.58333 v -40.52081 h 4.89583 v 14.47916 q 2.057291,-1.69271 4.374998,-2.76042 2.317707,-1.09374 5.208327,-1.09374 5.15625,0 8.125,3.95833 2.99479,3.95833 2.99479,11.17186 z m -5.05208,0.13021 q 0,-5.20833 -1.71875,-7.89062 -1.71875,-2.70833 -5.54687,-2.70833 -2.135418,0 -4.322917,0.9375 -2.187499,0.91146 -4.062498,2.36979 v 16.66666 q 2.083332,0.9375 3.567706,1.30208 1.510416,0.36458 3.411459,0.36458 4.0625,0 6.35416,-2.65625 2.31771,-2.68229 2.31771,-8.38541 z"
           style="-inkscape-font-specification:sans-serif"
           id="path40481" />
        <path
           d="m 126.67389,501.74829 h -4.89583 v -40.52081 h 4.89583 z"
           style="-inkscape-font-specification:sans-serif"
           id="path40478" />
        <path
           d="m 160.76242,487.71184 h -21.43228 q 0,2.68229 0.80729,4.6875 0.80729,1.97916 2.21354,3.2552 1.35417,1.25 3.20313,1.875 1.87499,0.625 4.11458,0.625 2.96874,0 5.96353,-1.17187 3.02084,-1.19792 4.29688,-2.34375 h 0.26041 v 5.33854 q -2.47395,1.04166 -5.05208,1.74479 -2.57812,0.70312 -5.41666,0.70312 -7.23958,0 -11.30208,-3.90624 -4.06249,-3.93229 -4.06249,-11.14583 0,-7.13541 3.8802,-11.32812 3.90625,-4.1927 10.26041,-4.1927 5.88542,0 9.0625,3.43749 3.20312,3.4375 3.20312,9.76562 z m -4.76562,-3.75 q -0.026,-3.85416 -1.95313,-5.96353 -1.90104,-2.10938 -5.80728,-2.10938 -3.93229,0 -6.27604,2.31771 -2.31771,2.31771 -2.63021,5.7552 z m -4.63542,-16.11978 h -3.8802 l -7.10937,-9.73958 h 6.32812 z"
           style="-inkscape-font-specification:sans-serif"
           id="path40475" />
        <path
           d="m 210.63218,501.74829 h -4.89583 V 485.1858 q 0,-1.875 -0.18229,-3.61979 -0.15625,-1.74479 -0.70313,-2.78646 -0.59895,-1.11979 -1.71875,-1.6927 -1.11979,-0.57292 -3.22916,-0.57292 -2.05729,0 -4.11458,1.04167 -2.05729,1.01562 -4.11458,2.60416 0.0781,0.59896 0.13021,1.40625 0.0521,0.78125 0.0521,1.5625 v 18.61978 h -4.89583 V 485.1858 q 0,-1.92708 -0.18229,-3.64583 -0.15625,-1.74479 -0.70313,-2.78646 -0.59895,-1.11979 -1.71875,-1.66666 -1.11979,-0.57292 -3.22916,-0.57292 -2.00521,0 -4.03646,0.98958 -2.0052,0.98959 -4.01041,2.52604 v 21.71874 h -4.89583 v -29.08852 h 4.89583 v 3.22916 q 2.29166,-1.90104 4.55729,-2.96875 2.29166,-1.0677 4.86979,-1.0677 2.96875,0 5.02604,1.24999 2.08333,1.25 3.09895,3.46354 2.96875,-2.49999 5.41667,-3.59374 2.44791,-1.11979 5.23437,-1.11979 4.79166,0 7.05729,2.91666 2.29166,2.89062 2.29166,8.09895 z"
           style="-inkscape-font-specification:sans-serif"
           id="path40472" />
        <path
           d="m 244.4082,487.71184 h -21.43228 q 0,2.68229 0.80729,4.6875 0.8073,1.97916 2.21354,3.2552 1.35417,1.25 3.20313,1.875 1.875,0.625 4.11458,0.625 2.96875,0 5.96354,-1.17187 3.02083,-1.19792 4.29687,-2.34375 h 0.26042 v 5.33854 q -2.47396,1.04166 -5.05208,1.74479 -2.57813,0.70312 -5.41667,0.70312 -7.23958,0 -11.30207,-3.90624 -4.0625,-3.93229 -4.0625,-11.14583 0,-7.13541 3.8802,-11.32812 3.90625,-4.1927 10.26041,-4.1927 5.88542,0 9.0625,3.43749 3.20312,3.4375 3.20312,9.76562 z m -4.76562,-3.75 q -0.026,-3.85416 -1.95312,-5.96353 -1.90104,-2.10938 -5.80729,-2.10938 -3.93229,0 -6.27604,2.31771 -2.31771,2.31771 -2.63021,5.7552 z"
           style="-inkscape-font-specification:sans-serif"
           id="path40469" />
        <path
           d="m 272.61131,493.36288 q 0,3.98437 -3.30729,6.53645 -3.28125,2.55209 -8.98437,2.55209 -3.22916,0 -5.9375,-0.75521 -2.68229,-0.78125 -4.5052,-1.69271 v -5.49479 h 0.26041 q 2.31771,1.74479 5.15625,2.78646 2.83854,1.01562 5.44271,1.01562 3.22916,0 5.05208,-1.04166 1.82291,-1.04167 1.82291,-3.28125 0,-1.71875 -0.98958,-2.60417 -0.98958,-0.88541 -3.80208,-1.51041 -1.04167,-0.23438 -2.73438,-0.54688 -1.66666,-0.3125 -3.04687,-0.67708 -3.82812,-1.01562 -5.4427,-2.96875 -1.58854,-1.97916 -1.58854,-4.84374 0,-1.79688 0.72916,-3.38542 0.75521,-1.58854 2.26563,-2.83854 1.45833,-1.22396 3.69791,-1.92708 2.26562,-0.72917 5.05208,-0.72917 2.60417,0 5.26041,0.65104 2.68229,0.625 4.45313,1.53646 v 5.23437 h -0.26042 q -1.875,-1.3802 -4.55729,-2.3177 -2.68229,-0.96355 -5.26041,-0.96355 -2.68229,0 -4.53125,1.04167 -1.84896,1.01563 -1.84896,3.04687 0,1.79688 1.11979,2.70834 1.09375,0.91145 3.54167,1.48437 1.35416,0.3125 3.02083,0.625 1.69271,0.3125 2.8125,0.57292 3.41145,0.78125 5.26041,2.68229 1.84896,1.92708 1.84896,5.10416 z"
           style="-inkscape-font-specification:sans-serif"
           id="path40466" />
        <path
           d="m 321.98626,501.74829 h -4.89583 v -3.04687 q -2.10937,1.82291 -4.40104,2.83854 -2.29166,1.01562 -4.97395,1.01562 -5.20833,0 -8.28125,-4.01041 -3.04687,-4.01042 -3.04687,-11.11979 0,-3.69791 1.04166,-6.58853 1.06771,-2.89063 2.86459,-4.92188 1.77083,-1.97916 4.11458,-3.02083 2.36979,-1.04166 4.89583,-1.04166 2.29166,0 4.0625,0.49479 1.77083,0.46875 3.72395,1.48437 v -12.60416 h 4.89583 z m -4.89583,-7.16145 v -16.6927 q -1.97916,-0.88542 -3.54166,-1.22396 -1.5625,-0.33854 -3.41146,-0.33854 -4.11458,0 -6.40625,2.86458 -2.29166,2.86458 -2.29166,8.125 0,5.18228 1.77083,7.89062 1.77083,2.68229 5.67708,2.68229 2.08333,0 4.21875,-0.91146 2.13541,-0.9375 3.98437,-2.39583 z"
           style="-inkscape-font-specification:sans-serif"
           id="path40463" />
        <path
           d="m 355.97063,487.71184 h -21.43228 q 0,2.68229 0.80729,4.6875 0.80729,1.97916 2.21354,3.2552 1.35416,1.25 3.20312,1.875 1.875,0.625 4.11458,0.625 2.96875,0 5.96354,-1.17187 3.02083,-1.19792 4.29687,-2.34375 h 0.26042 v 5.33854 q -2.47396,1.04166 -5.05208,1.74479 -2.57812,0.70312 -5.41666,0.70312 -7.23958,0 -11.30208,-3.90624 -4.0625,-3.93229 -4.0625,-11.14583 0,-7.13541 3.88021,-11.32812 3.90625,-4.1927 10.26041,-4.1927 5.88541,0 9.06249,3.43749 3.20313,3.4375 3.20313,9.76562 z m -4.76563,-3.75 q -0.026,-3.85416 -1.95312,-5.96353 -1.90104,-2.10938 -5.80729,-2.10938 -3.93229,0 -6.27604,2.31771 -2.3177,2.31771 -2.6302,5.7552 z"
           style="-inkscape-font-specification:sans-serif"
           id="path40460" />
        <path
           d="m 424.59039,501.74829 h -4.89583 V 485.1858 q 0,-1.875 -0.1823,-3.61979 -0.15625,-1.74479 -0.70312,-2.78646 -0.59896,-1.11979 -1.71875,-1.6927 -1.11979,-0.57292 -3.22916,-0.57292 -2.05729,0 -4.11458,1.04167 -2.0573,1.01562 -4.11459,2.60416 0.0781,0.59896 0.13021,1.40625 0.0521,0.78125 0.0521,1.5625 v 18.61978 h -4.89583 V 485.1858 q 0,-1.92708 -0.1823,-3.64583 -0.15625,-1.74479 -0.70312,-2.78646 -0.59896,-1.11979 -1.71875,-1.66666 -1.11979,-0.57292 -3.22916,-0.57292 -2.00521,0 -4.03646,0.98958 -2.00521,0.98959 -4.01041,2.52604 v 21.71874 h -4.89583 v -29.08852 h 4.89583 v 3.22916 q 2.29166,-1.90104 4.55728,-2.96875 2.29167,-1.0677 4.86979,-1.0677 2.96875,0 5.02604,1.24999 2.08333,1.25 3.09896,3.46354 2.96875,-2.49999 5.41666,-3.59374 2.44792,-1.11979 5.23437,-1.11979 4.79167,0 7.05729,2.91666 2.29167,2.89062 2.29167,8.09895 z"
           style="-inkscape-font-specification:sans-serif"
           id="path40457" />
        <path
           d="m 456.62162,501.74829 h -4.86979 v -3.09896 q -0.65104,0.44271 -1.77083,1.25 -1.09375,0.78125 -2.13542,1.25 -1.22396,0.59896 -2.8125,0.98959 -1.58854,0.41666 -3.72395,0.41666 -3.93229,0 -6.66667,-2.60416 -2.73437,-2.60417 -2.73437,-6.64062 0,-3.30729 1.40625,-5.33854 1.43229,-2.05729 4.0625,-3.22917 2.65625,-1.17187 6.3802,-1.58854 3.72396,-0.41666 7.99479,-0.625 v -0.75521 q 0,-1.66666 -0.59896,-2.76041 -0.57292,-1.09375 -1.66666,-1.71875 -1.04167,-0.59896 -2.5,-0.80729 -1.45834,-0.20833 -3.04688,-0.20833 -1.92708,0 -4.29687,0.52083 -2.36979,0.49479 -4.89583,1.45833 h -0.26042 v -4.97395 q 1.4323,-0.39063 4.14063,-0.85938 2.70833,-0.46875 5.33854,-0.46875 3.07291,0 5.33853,0.52084 2.29167,0.49479 3.95833,1.71874 1.64063,1.19792 2.5,3.09896 0.85938,1.90104 0.85938,4.71354 z m -4.86979,-7.16145 v -8.09896 q -2.23958,0.13021 -5.28646,0.39063 -3.02083,0.26041 -4.79166,0.75521 -2.10937,0.59895 -3.41146,1.87499 -1.30208,1.25 -1.30208,3.46354 0,2.5 1.51042,3.77604 1.51041,1.25 4.60937,1.25 2.57812,0 4.71354,-0.98958 2.13541,-1.01562 3.95833,-2.42187 z"
           style="-inkscape-font-specification:sans-serif"
           id="path40454" />
        <path
           d="m 481.20494,501.48787 q -1.38021,0.36459 -3.02084,0.59896 -1.61458,0.23438 -2.89062,0.23438 -4.45312,0 -6.77083,-2.39583 -2.31771,-2.39584 -2.31771,-7.68229 v -15.46874 h -3.30729 v -4.11458 h 3.30729 v -8.35937 h 4.89583 v 8.35937 h 10.10417 v 4.11458 h -10.10417 v 13.2552 q 0,2.29166 0.10417,3.59375 0.10417,1.27604 0.72917,2.39583 0.57291,1.04166 1.5625,1.53646 1.01562,0.46874 3.07291,0.46874 1.19792,0 2.5,-0.33854 1.30208,-0.36458 1.875,-0.59895 h 0.26042 z"
           style="-inkscape-font-specification:sans-serif"
           id="path40451" />
        <path
           d="m 511.46534,501.74829 h -4.89583 V 485.1858 q 0,-2.00521 -0.23438,-3.75 -0.23437,-1.77083 -0.85937,-2.76041 -0.65104,-1.09375 -1.875,-1.61458 -1.22396,-0.54688 -3.17708,-0.54688 -2.00521,0 -4.19271,0.98958 -2.1875,0.98959 -4.19271,2.52604 v 21.71874 h -4.89583 v -40.52081 h 4.89583 v 14.66145 q 2.29167,-1.90104 4.73959,-2.96875 2.44791,-1.0677 5.02603,-1.0677 4.71354,0 7.1875,2.83854 2.47396,2.83854 2.47396,8.17707 z"
           style="-inkscape-font-specification:sans-serif"
           id="path40448" />
        <path
           d="m 541.67367,493.36288 q 0,3.98437 -3.30729,6.53645 -3.28125,2.55209 -8.98437,2.55209 -3.22916,0 -5.93749,-0.75521 -2.68229,-0.78125 -4.50521,-1.69271 v -5.49479 h 0.26042 q 2.3177,1.74479 5.15624,2.78646 2.83854,1.01562 5.44271,1.01562 3.22916,0 5.05208,-1.04166 1.82291,-1.04167 1.82291,-3.28125 0,-1.71875 -0.98958,-2.60417 -0.98958,-0.88541 -3.80208,-1.51041 -1.04167,-0.23438 -2.73437,-0.54688 -1.66667,-0.3125 -3.04688,-0.67708 -3.82812,-1.01562 -5.4427,-2.96875 -1.58854,-1.97916 -1.58854,-4.84374 0,-1.79688 0.72916,-3.38542 0.75521,-1.58854 2.26563,-2.83854 1.45833,-1.22396 3.69791,-1.92708 2.26563,-0.72917 5.05208,-0.72917 2.60417,0 5.26042,0.65104 2.68229,0.625 4.45312,1.53646 v 5.23437 h -0.26042 q -1.875,-1.3802 -4.55729,-2.3177 -2.68229,-0.96355 -5.26041,-0.96355 -2.68229,0 -4.53125,1.04167 -1.84895,1.01563 -1.84895,3.04687 0,1.79688 1.11979,2.70834 1.09375,0.91145 3.54166,1.48437 1.35417,0.3125 3.02083,0.625 1.69271,0.3125 2.8125,0.57292 3.41146,0.78125 5.26041,2.68229 1.84896,1.92708 1.84896,5.10416 z"
           style="-inkscape-font-specification:sans-serif"
           id="path40445" />
        <path
           d="m 590.05903,501.74829 h -4.86979 v -3.09896 q -0.65104,0.44271 -1.77083,1.25 -1.09375,0.78125 -2.13542,1.25 -1.22396,0.59896 -2.8125,0.98959 -1.58854,0.41666 -3.72395,0.41666 -3.93229,0 -6.66667,-2.60416 -2.73437,-2.60417 -2.73437,-6.64062 0,-3.30729 1.40625,-5.33854 1.43229,-2.05729 4.0625,-3.22917 2.65624,-1.17187 6.3802,-1.58854 3.72396,-0.41666 7.99479,-0.625 v -0.75521 q 0,-1.66666 -0.59896,-2.76041 -0.57292,-1.09375 -1.66667,-1.71875 -1.04166,-0.59896 -2.49999,-0.80729 -1.45834,-0.20833 -3.04688,-0.20833 -1.92708,0 -4.29687,0.52083 -2.36979,0.49479 -4.89583,1.45833 h -0.26042 v -4.97395 q 1.43229,-0.39063 4.14063,-0.85938 2.70833,-0.46875 5.33853,-0.46875 3.07292,0 5.33854,0.52084 2.29167,0.49479 3.95833,1.71874 1.64063,1.19792 2.5,3.09896 0.85938,1.90104 0.85938,4.71354 z m -4.86979,-7.16145 v -8.09896 q -2.23958,0.13021 -5.28646,0.39063 -3.02083,0.26041 -4.79166,0.75521 -2.10938,0.59895 -3.41146,1.87499 -1.30208,1.25 -1.30208,3.46354 0,2.5 1.51042,3.77604 1.51041,1.25 4.60937,1.25 2.57812,0 4.71354,-0.98958 2.13541,-1.01562 3.95833,-2.42187 z"
           style="-inkscape-font-specification:sans-serif"
           id="path40442" />
        <path
           d="m 624.69442,472.65977 -11.77083,29.08852 h -4.92187 l -11.6927,-29.08852 h 5.3125 l 9.01041,23.15102 8.93229,-23.15102 z"
           style="-inkscape-font-specification:sans-serif"
           id="path40439" />
        <path
           d="m 655.44963,487.71184 h -21.43228 q 0,2.68229 0.80729,4.6875 0.80729,1.97916 2.21354,3.2552 1.35417,1.25 3.20313,1.875 1.87499,0.625 4.11458,0.625 2.96874,0 5.96353,-1.17187 3.02084,-1.19792 4.29688,-2.34375 h 0.26041 v 5.33854 q -2.47395,1.04166 -5.05208,1.74479 -2.57812,0.70312 -5.41666,0.70312 -7.23958,0 -11.30208,-3.90624 -4.06249,-3.93229 -4.06249,-11.14583 0,-7.13541 3.8802,-11.32812 3.90625,-4.1927 10.26041,-4.1927 5.88542,0 9.0625,3.43749 3.20312,3.4375 3.20312,9.76562 z m -4.76562,-3.75 q -0.026,-3.85416 -1.95313,-5.96353 -1.90104,-2.10938 -5.80728,-2.10938 -3.93229,0 -6.27604,2.31771 -2.31771,2.31771 -2.63021,5.7552 z"
           style="-inkscape-font-specification:sans-serif"
           id="path40436" />
        <path
           d="m 684.3819,499.92538 q -2.44791,1.17187 -4.66145,1.82291 -2.1875,0.65104 -4.66146,0.65104 -3.15104,0 -5.78124,-0.91146 -2.63021,-0.93749 -4.50521,-2.81249 -1.90104,-1.875 -2.94271,-4.73958 -1.04166,-2.86459 -1.04166,-6.69271 0,-7.13541 3.90624,-11.19791 3.93229,-4.0625 10.36458,-4.0625 2.5,0 4.89583,0.70313 2.42188,0.70312 4.42708,1.71875 v 5.4427 h -0.26041 q -2.23959,-1.74479 -4.63542,-2.68229 -2.36979,-0.9375 -4.63541,-0.9375 -4.16667,0 -6.58854,2.8125 -2.39583,2.78646 -2.39583,8.20312 0,5.26041 2.34375,8.09895 2.36979,2.8125 6.64062,2.8125 1.48437,0 3.02083,-0.39062 1.53646,-0.39063 2.76042,-1.01563 1.0677,-0.54687 2.0052,-1.14583 0.9375,-0.625 1.48438,-1.06771 h 0.26041 z"
           style="-inkscape-font-specification:sans-serif"
           id="path40433" />
        <path
           d="m 733.02767,512.47745 h -4.89583 v -14.01041 q -2.26562,1.95313 -4.5052,2.91667 -2.23958,0.9375 -4.84375,0.9375 -5.18229,0 -8.28124,-3.98438 -3.07292,-4.01041 -3.07292,-11.04166 0,-3.74999 1.06771,-6.61457 1.09375,-2.89063 2.86458,-4.84375 1.71875,-1.90104 4.03646,-2.94271 2.3177,-1.04166 4.89583,-1.04166 2.34375,0 4.14062,0.52083 1.82291,0.52083 3.69791,1.53646 l 0.3125,-1.25 h 4.58333 z m -4.89583,-18.12499 v -16.45832 q -2.03125,-0.91146 -3.59374,-1.27604 -1.5625,-0.36459 -3.38542,-0.36459 -4.24479,0 -6.45833,2.89063 -2.21354,2.86458 -2.21354,7.91666 0,5.10416 1.77083,7.86458 1.79688,2.73437 5.625,2.73437 2.13542,0 4.27083,-0.91146 2.13542,-0.9375 3.98437,-2.39583 z"
           style="-inkscape-font-specification:sans-serif"
           id="path40430" />
        <path
           d="m 766.77769,501.74829 h -4.89583 v -3.22916 q -2.47395,1.95312 -4.73958,2.99479 -2.26562,1.04166 -4.99999,1.04166 -4.58333,0 -7.13542,-2.78645 -2.55208,-2.8125 -2.55208,-8.22917 v -18.88019 h 4.89583 v 16.56249 q 0,2.21354 0.20834,3.80208 0.20833,1.5625 0.88541,2.68229 0.70313,1.14583 1.82292,1.66666 1.11979,0.52084 3.2552,0.52084 1.90104,0 4.14063,-0.98959 2.26562,-0.98958 4.21874,-2.52604 v -21.71873 h 4.89583 z"
           style="-inkscape-font-specification:sans-serif"
           id="path40427" />
        <path
           d="m 800.76201,487.71184 h -21.43228 q 0,2.68229 0.80729,4.6875 0.80729,1.97916 2.21354,3.2552 1.35417,1.25 3.20312,1.875 1.875,0.625 4.11458,0.625 2.96875,0 5.96354,-1.17187 3.02083,-1.19792 4.29688,-2.34375 h 0.26041 v 5.33854 q -2.47396,1.04166 -5.05208,1.74479 -2.57812,0.70312 -5.41666,0.70312 -7.23958,0 -11.30208,-3.90624 -4.0625,-3.93229 -4.0625,-11.14583 0,-7.13541 3.88021,-11.32812 3.90625,-4.1927 10.26041,-4.1927 5.88541,0 9.06249,3.43749 3.20313,3.4375 3.20313,9.76562 z m -4.76562,-3.75 q -0.0261,-3.85416 -1.95313,-5.96353 -1.90104,-2.10938 -5.80729,-2.10938 -3.93229,0 -6.27603,2.31771 -2.31771,2.31771 -2.63021,5.7552 z"
           style="-inkscape-font-specification:sans-serif"
           id="path40424" />
        <path
           d="m 828.96511,493.36288 q 0,3.98437 -3.30729,6.53645 -3.28124,2.55209 -8.98436,2.55209 -3.22917,0 -5.9375,-0.75521 -2.68229,-0.78125 -4.50521,-1.69271 v -5.49479 h 0.26042 q 2.31771,1.74479 5.15625,2.78646 2.83854,1.01562 5.4427,1.01562 3.22917,0 5.05208,-1.04166 1.82292,-1.04167 1.82292,-3.28125 0,-1.71875 -0.98959,-2.60417 -0.98958,-0.88541 -3.80208,-1.51041 -1.04166,-0.23438 -2.73437,-0.54688 -1.66667,-0.3125 -3.04687,-0.67708 -3.82813,-1.01562 -5.44271,-2.96875 -1.58854,-1.97916 -1.58854,-4.84374 0,-1.79688 0.72917,-3.38542 0.75521,-1.58854 2.26562,-2.83854 1.45833,-1.22396 3.69792,-1.92708 2.26562,-0.72917 5.05208,-0.72917 2.60416,0 5.26041,0.65104 2.68229,0.625 4.45312,1.53646 v 5.23437 h -0.26041 q -1.875,-1.3802 -4.55729,-2.3177 -2.68229,-0.96355 -5.26042,-0.96355 -2.68229,0 -4.53124,1.04167 -1.84896,1.01563 -1.84896,3.04687 0,1.79688 1.11979,2.70834 1.09375,0.91145 3.54166,1.48437 1.35417,0.3125 3.02084,0.625 1.6927,0.3125 2.81249,0.57292 3.41146,0.78125 5.26042,2.68229 1.84895,1.92708 1.84895,5.10416 z"
           style="-inkscape-font-specification:sans-serif"
           id="path40421" />
        <path
           d="m 851.10053,501.48787 q -1.3802,0.36459 -3.02083,0.59896 -1.61458,0.23438 -2.89062,0.23438 -4.45312,0 -6.77083,-2.39583 -2.31771,-2.39584 -2.31771,-7.68229 v -15.46874 h -3.30729 v -4.11458 h 3.30729 v -8.35937 h 4.89583 v 8.35937 h 10.10416 v 4.11458 h -10.10416 v 13.2552 q 0,2.29166 0.10417,3.59375 0.10417,1.27604 0.72917,2.39583 0.57291,1.04166 1.5625,1.53646 1.01562,0.46874 3.07291,0.46874 1.19792,0 2.5,-0.33854 1.30208,-0.36458 1.875,-0.59895 h 0.26041 z"
           style="-inkscape-font-specification:sans-serif"
           id="path40418" />
        <path
           d="m 862.29848,467.78998 h -5.52083 v -5.07812 h 5.52083 z m -0.3125,33.95831 h -4.89583 v -29.08852 h 4.89583 z"
           style="-inkscape-font-specification:sans-serif"
           id="path40415" />
        <path
           d="m 896.51715,487.21705 q 0,7.10937 -3.64583,11.22395 -3.64583,4.11458 -9.76562,4.11458 -6.17187,0 -9.8177,-4.11458 -3.61979,-4.11458 -3.61979,-11.22395 0,-7.10937 3.61979,-11.22395 3.64583,-4.14062 9.8177,-4.14062 6.11979,0 9.76562,4.14062 3.64583,4.11458 3.64583,11.22395 z m -5.05208,0 q 0,-5.65104 -2.21354,-8.38541 -2.21354,-2.76042 -6.14583,-2.76042 -3.98437,0 -6.19791,2.76042 -2.1875,2.73437 -2.1875,8.38541 0,5.46875 2.21354,8.30729 2.21354,2.81249 6.17187,2.81249 3.90625,0 6.11979,-2.78645 2.23958,-2.8125 2.23958,-8.33333 z"
           style="-inkscape-font-specification:sans-serif"
           id="path40412" />
        <path
           d="m 928.44422,501.74829 h -4.89583 V 485.1858 q 0,-2.00521 -0.23438,-3.75 -0.23437,-1.77083 -0.85937,-2.76041 -0.65104,-1.09375 -1.875,-1.61458 -1.22396,-0.54688 -3.17708,-0.54688 -2.00521,0 -4.19271,0.98958 -2.1875,0.98959 -4.1927,2.52604 v 21.71874 h -4.89583 v -29.08852 h 4.89583 v 3.22916 q 2.29166,-1.90104 4.73958,-2.96875 2.44791,-1.0677 5.02604,-1.0677 4.71353,0 7.18749,2.83854 2.47396,2.83854 2.47396,8.17707 z"
           style="-inkscape-font-specification:sans-serif"
           id="path40409" />
        <path
           d="m 958.65255,493.36288 q 0,3.98437 -3.30729,6.53645 -3.28124,2.55209 -8.98437,2.55209 -3.22916,0 -5.93749,-0.75521 -2.68229,-0.78125 -4.50521,-1.69271 v -5.49479 h 0.26042 q 2.31771,1.74479 5.15625,2.78646 2.83854,1.01562 5.4427,1.01562 3.22917,0 5.05208,-1.04166 1.82292,-1.04167 1.82292,-3.28125 0,-1.71875 -0.98959,-2.60417 -0.98958,-0.88541 -3.80208,-1.51041 -1.04166,-0.23438 -2.73437,-0.54688 -1.66667,-0.3125 -3.04687,-0.67708 -3.82813,-1.01562 -5.44271,-2.96875 -1.58854,-1.97916 -1.58854,-4.84374 0,-1.79688 0.72917,-3.38542 0.7552,-1.58854 2.26562,-2.83854 1.45833,-1.22396 3.69791,-1.92708 2.26563,-0.72917 5.05209,-0.72917 2.60416,0 5.26041,0.65104 2.68229,0.625 4.45312,1.53646 v 5.23437 h -0.26042 q -1.87499,-1.3802 -4.55728,-2.3177 -2.68229,-0.96355 -5.26042,-0.96355 -2.68229,0 -4.53125,1.04167 -1.84895,1.01563 -1.84895,3.04687 0,1.79688 1.11979,2.70834 1.09375,0.91145 3.54166,1.48437 1.35417,0.3125 3.02083,0.625 1.69271,0.3125 2.8125,0.57292 3.41146,0.78125 5.26042,2.68229 1.84895,1.92708 1.84895,5.10416 z"
           style="-inkscape-font-specification:sans-serif"
           id="path40406" />
        <path
           d="m 981.10047,487.13892 h -16.24999 v -4.71353 h 16.24999 z"
           style="-inkscape-font-specification:sans-serif"
           id="path40403" />
        <path
           d="m 1013.5484,498.441 q 0,7.39583 -3.3594,10.85937 -3.3594,3.46354 -10.33854,3.46354 -2.31771,0 -4.53125,-0.33854 -2.1875,-0.3125 -4.32291,-0.91146 v -5 h 0.26041 q 1.19792,0.46875 3.80208,1.14584 2.60417,0.70312 5.20831,0.70312 2.5,0 4.1406,-0.59896 1.6407,-0.59896 2.5521,-1.66666 0.9115,-1.01563 1.3021,-2.44792 0.3906,-1.43229 0.3906,-3.20312 v -2.65625 q -2.2135,1.77083 -4.2448,2.65625 -2.0052,0.85937 -5.13016,0.85937 -5.20833,0 -8.28124,-3.74999 -3.04688,-3.77604 -3.04688,-10.625 0,-3.75 1.04167,-6.45833 1.06771,-2.73437 2.89062,-4.71354 1.69271,-1.84895 4.11458,-2.86458 2.42188,-1.04166 4.81771,-1.04166 2.526,0 4.2187,0.52083 1.7188,0.49479 3.6198,1.53646 l 0.3125,-1.25 h 4.5834 z m -4.8959,-4.6875 v -15.85936 q -1.9531,-0.88542 -3.6458,-1.25 -1.6667,-0.39063 -3.3333,-0.39063 -4.03648,0 -6.35419,2.70834 -2.31771,2.70833 -2.31771,7.86457 0,4.89584 1.71875,7.42188 1.71875,2.52604 5.70315,2.52604 2.1354,0 4.2708,-0.8073 2.1615,-0.83333 3.9583,-2.21354 z"
           style="-inkscape-font-specification:sans-serif"
           id="path40400" />
        <path
           d="m 1047.2983,501.74829 h -4.8958 v -3.22916 q -2.474,1.95312 -4.7396,2.99479 -2.2656,1.04166 -5,1.04166 -4.5833,0 -7.1354,-2.78645 -2.5521,-2.8125 -2.5521,-8.22917 v -18.88019 h 4.8959 v 16.56249 q 0,2.21354 0.2083,3.80208 0.2083,1.5625 0.8854,2.68229 0.7031,1.14583 1.8229,1.66666 1.1198,0.52084 3.2552,0.52084 1.9011,0 4.1406,-0.98959 2.2657,-0.98958 4.2188,-2.52604 v -21.71873 h 4.8958 z"
           style="-inkscape-font-specification:sans-serif"
           id="path40397" />
        <path
           d="m 1062.1941,467.78998 h -5.5208 v -5.07812 h 5.5208 z m -0.3125,33.95831 h -4.8958 v -29.08852 h 4.8958 z"
           style="-inkscape-font-specification:sans-serif"
           id="path40394" />
        <path
           d="m 1095.2149,501.74829 h -4.8958 v -3.04687 q -2.1094,1.82291 -4.401,2.83854 -2.2917,1.01562 -4.974,1.01562 -5.2083,0 -8.2812,-4.01041 -3.0469,-4.01042 -3.0469,-11.11979 0,-3.69791 1.0417,-6.58853 1.0677,-2.89063 2.8645,-4.92188 1.7709,-1.97916 4.1146,-3.02083 2.3698,-1.04166 4.8958,-1.04166 2.2917,0 4.0625,0.49479 1.7709,0.46875 3.724,1.48437 v -12.60416 h 4.8958 z m -4.8958,-7.16145 v -16.6927 q -1.9792,-0.88542 -3.5417,-1.22396 -1.5625,-0.33854 -3.4114,-0.33854 -4.1146,0 -6.4063,2.86458 -2.2916,2.86458 -2.2916,8.125 0,5.18228 1.7708,7.89062 1.7708,2.68229 5.6771,2.68229 2.0833,0 4.2187,-0.91146 2.1354,-0.9375 3.9844,-2.39583 z"
           style="-inkscape-font-specification:sans-serif"
           id="path40391" />
        <path
           d="m 1129.1994,487.71184 h -21.4323 q 0,2.68229 0.8073,4.6875 0.8073,1.97916 2.2135,3.2552 1.3542,1.25 3.2032,1.875 1.875,0.625 4.1145,0.625 2.9688,0 5.9636,-1.17187 3.0208,-1.19792 4.2969,-2.34375 h 0.2604 v 5.33854 q -2.474,1.04166 -5.0521,1.74479 -2.5781,0.70312 -5.4167,0.70312 -7.2396,0 -11.3021,-3.90624 -4.0624,-3.93229 -4.0624,-11.14583 0,-7.13541 3.8802,-11.32812 3.9062,-4.1927 10.2604,-4.1927 5.8854,0 9.0625,3.43749 3.2031,3.4375 3.2031,9.76562 z m -4.7656,-3.75 q -0.026,-3.85416 -1.9532,-5.96353 -1.901,-2.10938 -5.8072,-2.10938 -3.9323,0 -6.2761,2.31771 -2.3177,2.31771 -2.6302,5.7552 z"
           style="-inkscape-font-specification:sans-serif"
           id="path40388" />
        <path
           d="m 1157.4024,493.36288 q 0,3.98437 -3.3073,6.53645 -3.2812,2.55209 -8.9843,2.55209 -3.2292,0 -5.9375,-0.75521 -2.6823,-0.78125 -4.5052,-1.69271 v -5.49479 h 0.2604 q 2.3177,1.74479 5.1562,2.78646 2.8386,1.01562 5.4427,1.01562 3.2292,0 5.0521,-1.04166 1.8229,-1.04167 1.8229,-3.28125 0,-1.71875 -0.9895,-2.60417 -0.9896,-0.88541 -3.8021,-1.51041 -1.0417,-0.23438 -2.7344,-0.54688 -1.6667,-0.3125 -3.0469,-0.67708 -3.8281,-1.01562 -5.4427,-2.96875 -1.5885,-1.97916 -1.5885,-4.84374 0,-1.79688 0.7291,-3.38542 0.7553,-1.58854 2.2657,-2.83854 1.4583,-1.22396 3.6979,-1.92708 2.2656,-0.72917 5.0521,-0.72917 2.6041,0 5.2604,0.65104 2.6823,0.625 4.4531,1.53646 v 5.23437 h -0.2604 q -1.875,-1.3802 -4.5573,-2.3177 -2.6823,-0.96355 -5.2604,-0.96355 -2.6823,0 -4.5313,1.04167 -1.8489,1.01563 -1.8489,3.04687 0,1.79688 1.1198,2.70834 1.0937,0.91145 3.5416,1.48437 1.3542,0.3125 3.0209,0.625 1.6927,0.3125 2.8125,0.57292 3.4114,0.78125 5.2604,2.68229 1.8489,1.92708 1.8489,5.10416 z"
           style="-inkscape-font-specification:sans-serif"
           id="path40385" />
      </g>
    </g>
    <g
       aria-label="dzdx.xyz"
       transform="scale(0.94317591,1.0602476)"
       id="text25970"
       style="font-size:159.21px;fill:#4a4a4a;fill-opacity:1;stroke:none;stroke-width:1.65844">
      <g
         id="path46969"
         style="fill:#4a4a4a;fill-opacity:1;stroke:none">
        <path
           style="color:#000000;-inkscape-font-specification:'sans-serif Bold';fill:#4a4a4a;fill-opacity:1;stroke:none;-inkscape-stroke:none"
           d="m 614.29347,192.69807 h -27.98613 v -9.09549 q -7.22975,5.90818 -13.52663,8.7068 -6.29688,2.79861 -14.53725,2.79861 -15.93654,0 -25.49847,-12.2828 -9.56193,-12.28281 -9.56193,-33.11693 0,-11.11671 3.18731,-19.66803 3.26505,-8.62906 8.86227,-14.77046 5.28627,-5.83044 12.82698,-9.01775 7.54071,-3.26505 15.08142,-3.26505 7.85166,0 12.82698,1.71026 5.05305,1.63253 10.33932,4.19792 V 71.735784 h 27.98613 z M 586.30734,168.5989 v -42.83433 q -2.95409,-1.24383 -6.21914,-1.788 -3.26505,-0.54418 -5.98593,-0.54418 -11.03897,0 -16.55846,6.9188 -5.51949,6.84105 -5.51949,19.04612 0,12.82697 4.43114,18.65742 4.43114,5.7527 14.22629,5.7527 3.80922,0 8.08488,-1.3993 4.27566,-1.47705 7.54071,-3.80923 z"
           id="path46988" />
        <path
           style="color:#000000;-inkscape-font-specification:'sans-serif Bold';fill:#4a4a4a;fill-opacity:1;stroke:none;-inkscape-stroke:none"
           d="m 585.47852,70.90625 v 36.75781 c -3.13443,-1.4654 -6.23419,-2.78017 -9.25391,-3.75586 h -0.002 c -3.44153,-1.18053 -7.79449,-1.75 -13.08204,-1.75 -5.14681,0 -10.29053,1.11529 -15.41015,3.33203 -5.12768,2.16829 -9.50722,5.24754 -13.11133,9.22266 -3.80715,4.17761 -6.81448,9.19525 -9.02344,15.0332 l -0.002,0.002 v 0.002 c -2.16594,5.81106 -3.24023,12.4686 -3.24023,19.95898 0,14.01626 3.22211,25.25715 9.73632,33.625 6.51179,8.36473 15.31692,12.60352 26.1543,12.60352 5.58745,0 10.55246,-0.95083 14.87305,-2.87109 3.87793,-1.72353 8.0161,-4.41548 12.36133,-7.83008 v 8.29101 h 29.64453 V 192.69727 70.90625 Z m 1.6582,1.658203 h 26.32812 V 191.86914 h -26.32812 v -10.01562 l -1.35352,1.10742 c -4.77816,3.90473 -9.23219,6.76422 -13.33984,8.58984 -4.07524,1.81122 -8.79952,2.72852 -14.19922,2.72852 -10.41131,0 -18.60826,-3.95057 -24.8457,-11.96289 -6.23501,-8.00921 -9.38672,-18.84488 -9.38672,-32.60743 0,-7.33039 1.0518,-13.78509 3.13476,-19.375 2.14424,-5.66691 5.04392,-10.49517 8.69922,-14.50585 l 0.002,-0.002 c 3.44289,-3.79731 7.61103,-6.72921 12.53515,-8.81054 l 0.004,-0.002 h 0.002 c 4.93465,-2.13665 9.8445,-3.19726 14.75195,-3.19726 5.17423,0 9.36854,0.56748 12.5586,1.66406 l 0.006,0.004 0.008,0.002 c 3.32828,1.07529 6.73945,2.45918 10.23242,4.1543 l 1.19141,0.57812 z m -13.03516,50.039067 c -7.53254,0 -13.35735,2.40726 -17.20508,7.23046 -3.82916,4.74799 -5.70117,11.30273 -5.70117,19.5625 0,8.6468 1.46827,15.03997 4.59961,19.16016 l 0.002,0.002 0.002,0.002 c 3.13434,4.06914 8.19038,6.07617 14.88281,6.07617 2.64101,0 5.42413,-0.4859 8.34375,-1.44141 l 0.006,-0.002 0.006,-0.002 c 2.91617,-1.00741 5.50332,-2.31181 7.75195,-3.91797 l 0.34766,-0.24805 V 168.5996 125.21483 L 586.62891,125 c -2.03024,-0.85484 -4.16655,-1.46884 -6.4043,-1.8418 -2.21354,-0.36892 -4.25385,-0.55468 -6.12305,-0.55468 z m 0,1.6582 c 1.75864,0 3.70976,0.17656 5.84961,0.5332 1.93758,0.32293 3.76384,0.88669 5.52735,1.58789 v 41.75 c -2.02668,1.39854 -4.33319,2.57404 -6.97071,3.48633 -2.78125,0.91022 -5.38823,1.35938 -7.82617,1.35938 -6.36776,0 -10.79452,-1.82857 -13.56836,-5.42969 -2.77525,-3.65407 -4.25976,-9.69903 -4.25976,-18.15235 0,-8.0117 1.8076,-14.15225 5.33593,-18.52539 l 0.002,-0.002 c 3.51159,-4.40186 8.72409,-6.60742 15.91015,-6.60742 z"
           id="path46990" />
      </g>
      <g
         id="path46971"
         style="fill:#4a4a4a;fill-opacity:1;stroke:none">
        <path
           style="color:#000000;-inkscape-font-specification:'sans-serif Bold';fill:#4a4a4a;fill-opacity:1;stroke:none;-inkscape-stroke:none"
           d="m 716.05417,192.69807 h -82.01492 v -17.95776 l 46.02164,-48.898 h -44.1559 v -20.44543 h 79.29404 v 17.64682 l -45.32199,48.82025 h 46.17713 z"
           id="path46994" />
        <path
           style="color:#000000;-inkscape-font-specification:'sans-serif Bold';fill:#4a4a4a;fill-opacity:1;stroke:none;-inkscape-stroke:none"
           d="m 635.07617,104.56836 v 22.10352 h 43.06445 l -44.92968,47.74023 v 19.11523 h 83.67187 v -0.83007 -21.66211 h -45.10547 l 44.25,-47.66602 v -18.80078 z m 1.6582,1.6582 h 77.63477 v 16.49219 l -46.39258,49.97461 h 47.24805 v 19.17578 h -80.35547 v -16.80078 l 47.11133,-50.05469 h -45.2461 z"
           id="path46996" />
      </g>
      <g
         id="path46973"
         style="fill:#4a4a4a;fill-opacity:1;stroke:none">
        <path
           style="color:#000000;-inkscape-font-specification:'sans-serif Bold';fill:#4a4a4a;fill-opacity:1;stroke:none;-inkscape-stroke:none"
           d="m 820.76895,192.69807 h -27.98613 v -9.09549 q -7.22976,5.90818 -13.52664,8.7068 -6.29688,2.79861 -14.53724,2.79861 -15.93655,0 -25.49847,-12.2828 -9.56193,-12.28281 -9.56193,-33.11693 0,-11.11671 3.18731,-19.66803 3.26504,-8.62906 8.86227,-14.77046 5.28627,-5.83044 12.82698,-9.01775 7.54071,-3.26505 15.08142,-3.26505 7.85166,0 12.82697,1.71026 5.05306,1.63253 10.33933,4.19792 V 71.735784 h 27.98613 z M 792.78282,168.5989 v -42.83433 q -2.9541,-1.24383 -6.21914,-1.788 -3.26505,-0.54418 -5.98593,-0.54418 -11.03897,0 -16.55846,6.9188 -5.51949,6.84105 -5.51949,19.04612 0,12.82697 4.43114,18.65742 4.43114,5.7527 14.22628,5.7527 3.80923,0 8.08489,-1.3993 4.27566,-1.47705 7.54071,-3.80923 z"
           id="path47000" />
        <path
           style="color:#000000;-inkscape-font-specification:'sans-serif Bold';fill:#4a4a4a;fill-opacity:1;stroke:none;-inkscape-stroke:none"
           d="m 791.95312,70.90625 v 36.75781 c -3.13355,-1.46498 -6.23107,-2.77836 -9.25,-3.7539 -3.44234,-1.18177 -7.79568,-1.75196 -13.08593,-1.75196 -5.14426,0 -10.28719,1.11553 -15.4043,3.33008 -5.13014,2.16841 -9.51368,5.24801 -13.11914,9.22461 -3.80679,4.17744 -6.81464,9.19564 -9.02344,15.0332 v 0.002 l -0.002,0.002 c -2.16594,5.81106 -3.23828,12.4686 -3.23828,19.95898 0,14.01626 3.22211,25.25715 9.73633,33.625 6.51177,8.36473 15.31495,12.60352 26.15234,12.60352 5.58744,0 10.55441,-0.95083 14.875,-2.87109 3.87793,-1.72353 8.01414,-4.41548 12.35937,-7.83008 v 8.29101 h 29.64454 V 192.69727 70.90625 Z m 1.65821,1.658203 h 26.32812 V 191.86914 h -26.32812 v -10.01562 l -1.35352,1.10742 c -4.77817,3.90473 -9.23024,6.76422 -13.33789,8.58984 -4.07524,1.81122 -8.80148,2.72852 -14.20117,2.72852 -10.41132,0 -18.60631,-3.95057 -24.84375,-11.96289 -6.23501,-8.00921 -9.38672,-18.84488 -9.38672,-32.60743 0,-7.3302 1.04996,-13.78519 3.13281,-19.375 l 0.002,-0.004 c 2.14407,-5.66508 5.04286,-10.49227 8.69726,-14.50195 h 0.002 v -0.002 c 3.44289,-3.79731 7.61103,-6.72921 12.53515,-8.81054 l 0.004,-0.002 h 0.004 c 4.93465,-2.13665 9.8445,-3.19726 14.75196,-3.19726 5.17423,0 9.36658,0.56748 12.55664,1.66406 l 0.008,0.004 0.008,0.002 c 3.32829,1.07529 6.7375,2.45918 10.23047,4.1543 l 1.19141,0.57812 z m -13.03321,50.039067 c -7.53254,0 -13.35931,2.40726 -17.20703,7.23046 -3.82916,4.74799 -5.70117,11.30274 -5.70117,19.5625 0,8.6468 1.47022,15.03997 4.60156,19.16016 v 0.002 l 0.002,0.002 c 3.13434,4.06914 8.19039,6.07617 14.88281,6.07617 2.64102,0 5.42413,-0.4859 8.34375,-1.44141 l 0.006,-0.002 0.008,-0.002 c 2.91618,-1.00741 5.50332,-2.31181 7.75195,-3.91797 l 0.34571,-0.24805 V 168.5996 125.21483 L 793.10547,125 c -2.03024,-0.85484 -4.1685,-1.46884 -6.40625,-1.8418 -2.21354,-0.36892 -4.2519,-0.55468 -6.1211,-0.55468 z m 0,1.6582 c 1.75864,0 3.70976,0.17656 5.84961,0.5332 1.93752,0.32292 3.76192,0.88672 5.52539,1.58789 v 41.75 c -2.02622,1.39823 -4.33195,2.57414 -6.96875,3.48633 -2.78125,0.91022 -5.39017,1.35938 -7.82812,1.35938 -6.36514,0 -10.79039,-1.8276 -13.56445,-5.42579 -2.77684,-3.65373 -4.26368,-9.70043 -4.26368,-18.15625 0,-8.0117 1.80761,-14.15225 5.33594,-18.52539 l 0.002,-0.002 h 0.002 c 3.51159,-4.40186 8.72409,-6.60742 15.91015,-6.60742 z"
           id="path47002" />
      </g>
      <g
         id="path46975"
         style="fill:#4a4a4a;fill-opacity:1;stroke:none">
        <path
           style="color:#000000;-inkscape-font-specification:'sans-serif Bold';fill:#4a4a4a;fill-opacity:1;stroke:none;-inkscape-stroke:none"
           d="M 938.46619,192.69807 H 905.8157 l -18.65743,-26.12039 -19.12385,26.12039 h -32.02858 l 34.43849,-43.61172 -33.89432,-43.68947 h 32.65049 l 18.34647,25.65396 18.4242,-25.65396 h 32.10632 l -33.97206,42.98982 z"
           id="path47006" />
        <path
           style="color:#000000;-inkscape-font-specification:'sans-serif Bold';fill:#4a4a4a;fill-opacity:1;stroke:none;-inkscape-stroke:none"
           d="m 834.85742,104.56836 34.5332,44.51367 -35.0957,44.44531 h 34.16016 l 18.69531,-25.5332 18.23828,25.5332 h 34.76953 l -1.03711,-1.33789 -33.96289,-43.79883 34.63086,-43.82226 h -34.24414 l -17.99805,25.05859 -17.91992,-25.05859 z m 3.38477,1.6582 h 30.53125 l 18.77148,26.24805 18.85156,-26.24805 h 29.96875 l -33.3125,42.15625 33.72071,43.48633 h -30.53125 l -19.07617,-26.70703 -19.55274,26.70703 H 837.7168 l 33.78125,-42.77734 z"
           id="path47008" />
      </g>
      <g
         id="path46977"
         style="fill:#4a4a4a;fill-opacity:1;stroke:none">
        <path
           style="color:#000000;-inkscape-font-specification:'sans-serif Bold';fill:#4a4a4a;fill-opacity:1;stroke:none;-inkscape-stroke:none"
           d="m 983.94365,192.69807 h -29.07448 v -30.55153 h 29.07448 z"
           id="path47012" />
        <path
           style="color:#000000;-inkscape-font-specification:'sans-serif Bold';fill:#4a4a4a;fill-opacity:1;stroke:none;-inkscape-stroke:none"
           d="m 954.03906,161.31641 v 32.21093 h 30.73438 v -0.83007 -31.38086 z m 1.66016,1.66015 h 27.41601 v 28.89258 h -27.41601 z"
           id="path47014" />
      </g>
      <g
         id="path46979"
         style="fill:#4a4a4a;fill-opacity:1;stroke:none">
        <path
           style="color:#000000;-inkscape-font-specification:'sans-serif Bold';fill:#4a4a4a;fill-opacity:1;stroke:none;-inkscape-stroke:none"
           d="m 1102.6515,192.69807 h -32.6505 l -18.6574,-26.12039 -19.1239,26.12039 h -32.0285 l 34.4385,-43.61172 -33.8944,-43.68947 h 32.6505 l 18.3465,25.65396 18.4242,-25.65396 h 32.1063 l -33.972,42.98982 z"
           id="path47018" />
        <path
           style="color:#000000;-inkscape-font-specification:'sans-serif Bold';fill:#4a4a4a;fill-opacity:1;stroke:none;-inkscape-stroke:none"
           d="m 999.04297,104.56836 34.53323,44.51367 -35.09573,44.44531 h 34.16013 l 18.6934,-25.5332 18.2402,25.5332 h 34.7696 l -1.0372,-1.33789 -33.9628,-43.79883 34.6308,-43.82226 h -34.2441 l -17.9981,25.05859 -17.9199,-25.05859 z m 3.38473,1.6582 h 30.5313 l 18.7715,26.24805 18.8515,-26.24805 h 29.9668 l -33.3105,42.15625 33.7207,43.48633 h -30.5313 l -19.0761,-26.70703 -19.5528,26.70703 h -29.8965 l 33.7813,-42.77734 z"
           id="path47020" />
      </g>
      <g
         id="path46981"
         style="fill:#4a4a4a;fill-opacity:1;stroke:none">
        <path
           style="color:#000000;-inkscape-font-specification:'sans-serif Bold';fill:#4a4a4a;fill-opacity:1;stroke:none;-inkscape-stroke:none"
           d="m 1157.4577,161.83559 19.9012,-56.43871 h 28.7635 l -48.5093,119.32977 h -30.3183 l 13.8376,-32.65049 -33.972,-86.67928 h 29.3854 z"
           id="path47024" />
        <path
           style="color:#000000;-inkscape-font-specification:'sans-serif Bold';fill:#4a4a4a;fill-opacity:1;stroke:none;-inkscape-stroke:none"
           d="m 1105.9453,104.56836 34.291,87.49609 -14.1933,33.49219 h 32.1289 l 49.1836,-120.98828 h -30.584 l -19.334,54.83008 -20.3145,-54.83008 z m 2.4297,1.6582 h 27.5938 l 21.5078,58.04688 0.7636,-2.16211 19.7051,-55.88477 h 26.9434 l -47.834,117.66992 h -28.5078 l 13.4804,-31.80859 z"
           id="path47026" />
      </g>
      <g
         id="path46983"
         style="fill:#4a4a4a;fill-opacity:1;stroke:none">
        <path
           style="color:#000000;-inkscape-font-specification:'sans-serif Bold';fill:#4a4a4a;fill-opacity:1;stroke:none;-inkscape-stroke:none"
           d="m 1296.9219,192.69807 h -82.0149 v -17.95776 l 46.0216,-48.898 h -44.1559 v -20.44543 h 79.2941 v 17.64682 l -45.322,48.82025 h 46.1771 z"
           id="path47030" />
        <path
           style="color:#000000;-inkscape-font-specification:'sans-serif Bold';fill:#4a4a4a;fill-opacity:1;stroke:none;-inkscape-stroke:none"
           d="m 1215.9434,104.56836 v 22.10352 h 43.0644 l -44.9297,47.74023 v 19.11523 h 83.6739 v -0.83007 -21.66211 h -45.1075 l 44.252,-47.66602 v -18.80078 z m 1.6582,1.6582 h 77.6367 v 16.49219 l -46.3945,49.97461 h 47.248 v 19.17578 h -80.3555 v -16.80078 l 47.1114,-50.05469 h -45.2461 z"
           id="path47032" />
      </g>
    </g>
  </g>
</svg>
